{"glyphs":{"0":{"ha":814,"x_min":56,"x_max":758,"o":"m 56 511 q 148 898 56 756 q 407 1039 239 1039 q 666 898 574 1039 q 758 511 758 756 q 666 123 758 265 q 407 -18 574 -18 q 148 123 239 -18 q 56 511 56 265 m 160 511 q 223 191 160 307 q 407 75 286 75 q 591 191 528 75 q 654 511 654 307 q 591 830 654 714 q 407 946 528 946 q 223 830 286 946 q 160 511 160 714 z "},"1":{"ha":503,"x_min":35,"x_max":386,"o":"m 35 796 l 380 1039 l 386 1039 l 386 0 l 283 0 l 283 846 l 82 707 l 35 796 z "},"2":{"ha":733,"x_min":75,"x_max":685,"o":"m 75 785 q 175 974 100 909 q 372 1039 250 1039 q 586 957 503 1039 q 669 745 669 876 q 638 574 669 648 q 538 415 608 500 l 279 94 l 685 94 l 685 0 l 82 0 l 82 8 l 454 472 q 542 608 517 548 q 567 746 567 668 q 512 891 567 838 q 372 945 457 945 q 238 900 288 945 q 168 764 188 856 l 75 785 z "},"3":{"ha":728,"x_min":58,"x_max":694,"o":"m 58 216 l 151 244 q 237 120 182 163 q 383 77 291 77 q 534 134 476 77 q 591 286 591 192 q 528 432 591 374 q 364 490 465 490 l 252 490 l 252 582 l 367 582 q 499 628 445 582 q 554 760 554 673 q 503 894 554 844 q 370 945 451 945 q 164 787 220 945 l 74 827 q 370 1039 154 1039 q 577 961 496 1039 q 657 758 657 883 q 509 538 657 597 q 645 443 595 509 q 694 286 694 377 q 609 66 694 150 q 383 -18 524 -18 q 178 42 255 -18 q 58 216 100 102 z "},"4":{"ha":757,"x_min":21,"x_max":730,"o":"m 21 214 l 21 220 l 574 1026 l 581 1026 l 581 309 l 730 309 l 730 214 l 581 214 l 581 0 l 478 0 l 478 214 l 21 214 m 196 307 l 479 307 l 479 729 l 196 307 z "},"5":{"ha":740,"x_min":64,"x_max":696,"o":"m 64 197 l 153 239 q 235 119 182 161 q 376 77 288 77 q 532 142 472 77 q 593 304 593 207 q 533 466 593 404 q 375 528 473 528 q 176 460 265 528 l 117 488 l 117 1021 l 632 1021 l 632 926 l 220 926 l 220 583 q 379 623 292 623 q 609 534 522 623 q 696 301 696 446 q 610 73 696 164 q 382 -18 524 -18 q 235 9 298 -18 q 132 82 172 36 q 64 197 92 129 z "},"6":{"ha":748,"x_min":47,"x_max":700,"o":"m 47 313 q 118 525 47 435 l 450 1021 l 567 1021 l 314 640 q 372 646 338 646 q 605 551 509 646 q 700 313 700 456 q 605 76 700 170 q 372 -18 509 -18 q 209 24 283 -18 q 91 142 135 66 q 47 313 47 218 m 151 313 q 215 142 151 210 q 372 75 279 75 q 531 142 466 75 q 596 313 596 210 q 531 485 596 416 q 372 553 466 553 q 215 485 279 553 q 151 313 151 416 z "},"7":{"ha":740,"x_min":39,"x_max":713,"o":"m 39 925 l 39 1021 l 713 1021 l 713 1013 l 186 0 l 74 0 l 559 925 l 39 925 z "},"8":{"ha":748,"x_min":41,"x_max":696,"o":"m 41 282 q 92 440 41 370 q 224 542 142 510 q 125 634 162 574 q 89 772 89 694 q 171 963 89 887 q 368 1039 252 1039 q 566 963 485 1039 q 647 772 647 888 q 610 635 647 696 q 513 543 574 575 q 646 439 595 509 q 696 282 696 370 q 651 128 696 197 q 532 20 607 58 q 368 -18 457 -18 q 242 4 302 -18 q 138 66 182 27 q 67 162 94 106 q 41 282 41 218 m 146 281 q 211 134 146 193 q 368 75 276 75 q 527 134 462 75 q 591 281 591 193 q 527 429 591 370 q 368 489 462 489 q 211 429 276 489 q 146 281 146 370 m 186 768 q 239 635 186 688 q 368 582 292 582 q 498 635 446 582 q 550 768 550 688 q 497 896 550 845 q 368 946 445 946 q 239 895 292 946 q 186 768 186 844 z "},"9":{"ha":748,"x_min":47,"x_max":700,"o":"m 143 470 q 95 517 143 470 q 47 708 47 565 q 143 945 47 851 q 375 1039 238 1039 q 538 997 464 1039 q 656 879 612 955 q 700 708 700 802 q 628 496 700 585 l 297 0 l 179 0 l 433 379 q 375 375 404 375 q 143 470 238 375 m 151 708 q 216 536 151 604 q 375 468 281 468 q 532 536 468 468 q 596 708 596 604 q 532 879 596 811 q 375 946 468 946 q 216 879 281 946 q 151 708 151 811 z "}," ":{"ha":334,"x_min":0,"x_max":0,"o":""},"!":{"ha":341,"x_min":98,"x_max":244,"o":"m 98 54 q 120 106 98 84 q 171 127 141 127 q 223 106 201 127 q 244 54 244 85 q 223 2 244 23 q 171 -18 202 -18 q 119 3 140 -18 q 98 54 98 24 m 121 269 l 121 1021 l 221 1021 l 221 269 l 121 269 z "},"\"":{"ha":398,"x_min":69,"x_max":364,"o":"m 69 1039 l 167 1019 l 121 664 l 78 664 l 69 1039 m 267 1039 l 364 1019 l 318 664 l 275 664 l 267 1039 z "},"#":{"ha":981,"x_min":1,"x_max":957,"o":"m 1 282 l 1 367 l 221 367 l 269 643 l 66 643 l 66 726 l 283 726 l 336 1021 l 435 1021 l 383 726 l 653 726 l 705 1021 l 806 1021 l 753 726 l 957 726 l 957 643 l 739 643 l 690 367 l 892 367 l 892 282 l 676 282 l 627 0 l 526 0 l 575 282 l 307 282 l 257 0 l 155 0 l 205 282 l 1 282 m 321 367 l 590 367 l 639 643 l 370 643 l 321 367 z "},"$":{"ha":795,"x_min":45,"x_max":758,"o":"m 45 110 l 106 197 q 243 112 161 143 q 410 81 324 81 q 586 132 518 81 q 654 275 654 182 q 594 396 654 352 q 393 469 533 439 q 140 573 214 509 q 66 753 66 637 q 148 955 66 879 q 364 1038 229 1031 l 364 1207 l 452 1207 l 452 1035 q 707 930 593 1020 l 652 844 q 387 940 535 940 q 232 893 291 940 q 172 755 172 847 q 227 640 172 677 q 422 571 281 602 q 681 465 604 531 q 758 282 758 399 q 675 77 758 157 q 452 -16 593 -4 l 452 -179 l 364 -179 l 364 -17 q 45 110 174 -5 z "},"%":{"ha":1192,"x_min":43,"x_max":1149,"o":"m 111 602 q 77 637 111 602 q 43 783 43 673 q 112 966 43 894 q 286 1039 180 1039 q 460 966 391 1039 q 529 783 529 894 q 460 602 529 673 q 286 530 391 530 q 111 602 180 530 m 123 783 q 170 657 123 707 q 286 607 216 607 q 403 657 357 607 q 449 783 449 707 q 403 911 449 861 q 286 961 357 961 q 170 911 216 961 q 123 783 123 861 m 208 0 l 878 1021 l 982 1021 l 313 0 l 208 0 m 731 54 q 697 90 731 54 q 663 236 663 125 q 731 419 663 347 q 905 492 800 492 q 1080 419 1010 492 q 1149 236 1149 347 q 1080 55 1149 126 q 905 -17 1011 -17 q 731 54 799 -17 m 743 236 q 789 110 743 159 q 905 61 835 61 q 1022 111 975 61 q 1068 236 1068 160 q 1022 363 1068 313 q 905 414 975 414 q 789 363 835 414 q 743 236 743 313 z "},"&":{"ha":936,"x_min":43,"x_max":939,"o":"m 43 265 q 57 362 43 319 q 104 444 71 406 q 177 513 136 481 q 282 586 218 545 q 175 825 175 715 q 235 981 175 922 q 396 1039 295 1039 q 558 981 497 1039 q 619 829 619 924 q 609 764 619 795 q 582 711 598 734 q 537 662 566 688 q 484 619 509 637 q 418 575 458 602 l 472 518 l 669 298 l 811 464 l 935 464 l 734 227 l 939 0 l 806 0 l 669 151 q 521 29 597 73 q 347 -14 445 -14 q 195 19 264 -14 q 85 115 127 51 q 43 265 43 180 m 147 271 q 206 130 147 182 q 353 78 264 78 q 428 90 391 78 q 496 123 464 101 q 552 169 528 145 q 606 224 577 192 l 401 453 l 338 522 q 256 465 287 489 q 198 410 224 440 q 159 346 171 380 q 147 271 147 313 m 272 822 q 295 729 272 774 q 363 636 319 684 q 487 731 452 691 q 522 825 522 770 q 488 918 522 885 q 397 951 454 951 q 306 918 339 951 q 272 822 272 884 z "},"'":{"ha":199,"x_min":69,"x_max":167,"o":"m 69 1039 l 167 1019 l 121 664 l 78 664 l 69 1039 z "},"(":{"ha":382,"x_min":69,"x_max":351,"o":"m 69 401 q 82 552 69 479 q 114 681 95 625 q 163 791 134 736 q 218 882 192 845 q 277 958 244 920 l 351 901 q 284 811 313 856 q 226 705 255 767 q 181 566 197 643 q 165 401 165 489 q 181 237 165 314 q 226 98 197 160 q 284 -8 255 36 q 351 -98 313 -53 l 277 -155 q 69 401 69 89 z "},")":{"ha":382,"x_min":31,"x_max":313,"o":"m 31 -98 q 98 -8 69 -53 q 156 98 127 36 q 201 237 185 160 q 216 401 216 314 q 201 566 216 489 q 156 705 185 643 q 98 811 127 767 q 31 901 69 856 l 106 958 q 313 401 313 715 q 106 -155 313 85 l 31 -98 z "},"*":{"ha":558,"x_min":39,"x_max":519,"o":"m 39 818 l 62 890 l 244 827 l 241 1019 l 318 1019 l 314 827 l 496 890 l 519 818 l 336 761 l 452 608 l 389 564 l 281 717 l 171 564 l 109 608 l 225 761 l 39 818 z "},"+":{"ha":655,"x_min":57,"x_max":597,"o":"m 57 440 l 57 533 l 281 533 l 281 755 l 374 755 l 374 533 l 597 533 l 597 440 l 374 440 l 374 215 l 281 215 l 281 440 l 57 440 z "},",":{"ha":237,"x_min":72,"x_max":179,"o":"m 72 140 q 98 146 83 146 q 156 122 133 146 q 179 64 179 99 q 167 21 179 43 l 78 -189 l 72 -189 l 72 140 z "},"-":{"ha":611,"x_min":58,"x_max":553,"o":"m 58 313 l 58 406 l 553 406 l 553 313 l 58 313 z "},".":{"ha":268,"x_min":54,"x_max":214,"o":"m 54 66 q 77 124 54 101 q 134 147 99 147 q 191 125 169 147 q 214 66 214 102 q 192 9 214 31 q 134 -14 170 -14 q 77 9 99 -14 q 54 66 54 31 z "},"/":{"ha":623,"x_min":7,"x_max":616,"o":"m 7 0 l 514 1019 l 616 1019 l 111 0 l 7 0 z "},":":{"ha":261,"x_min":54,"x_max":208,"o":"m 76 8 q 65 19 76 8 q 54 64 54 30 q 76 120 54 98 q 132 142 98 142 q 187 120 166 142 q 208 64 208 98 q 187 8 208 30 q 132 -14 165 -14 q 76 8 98 -14 m 76 575 q 65 586 76 575 q 54 631 54 597 q 76 686 54 665 q 132 708 98 708 q 187 686 165 708 q 208 631 208 665 q 187 575 208 597 q 132 553 165 553 q 76 575 98 553 z "},";":{"ha":261,"x_min":54,"x_max":208,"o":"m 76 575 q 65 586 76 575 q 54 631 54 597 q 76 686 54 665 q 132 708 98 708 q 187 686 165 708 q 208 631 208 665 q 187 575 208 597 q 132 553 165 553 q 76 575 98 553 m 78 138 q 106 142 92 142 q 162 119 140 142 q 184 61 184 96 q 174 16 184 37 l 83 -193 l 78 -193 l 78 138 z "},"<":{"ha":469,"x_min":31,"x_max":439,"o":"m 31 478 l 31 484 l 309 747 l 439 747 l 157 481 l 439 214 l 309 214 l 31 478 z "},"=":{"ha":655,"x_min":57,"x_max":597,"o":"m 57 283 l 57 376 l 597 376 l 597 283 l 57 283 m 57 595 l 57 689 l 597 689 l 597 595 l 57 595 z "},">":{"ha":469,"x_min":31,"x_max":439,"o":"m 31 214 l 311 481 l 31 747 l 160 747 l 439 484 l 439 478 l 160 214 l 31 214 z "},"?":{"ha":656,"x_min":29,"x_max":602,"o":"m 29 804 q 318 1039 81 1039 q 523 962 444 1039 q 602 766 602 886 q 589 678 602 718 q 556 609 576 637 q 511 556 536 581 q 461 510 486 532 q 417 466 437 488 q 384 415 397 444 q 371 354 371 387 l 371 269 l 269 269 l 269 366 q 282 439 269 406 q 314 498 294 473 q 358 546 334 523 q 407 591 382 569 q 451 638 431 614 q 483 694 471 662 q 496 765 496 727 q 445 897 496 849 q 317 945 394 945 q 129 786 163 945 l 29 804 m 249 54 q 270 106 249 85 q 321 127 290 127 q 372 106 351 127 q 393 54 393 85 q 373 2 393 23 q 321 -18 352 -18 q 269 2 290 -18 q 249 54 249 23 z "},"@":{"ha":1168,"x_min":46,"x_max":1122,"o":"m 46 336 q 114 612 46 490 q 305 803 182 734 q 583 872 428 872 q 801 832 701 872 q 972 723 901 793 q 1082 555 1042 654 q 1122 342 1122 456 q 1063 116 1122 201 q 899 32 1004 32 q 814 55 847 32 q 772 119 782 79 l 771 126 q 564 32 697 32 q 372 117 447 32 q 297 334 297 203 q 372 551 297 465 q 564 636 446 636 q 765 549 696 636 l 766 624 l 847 624 l 847 171 q 907 110 847 110 q 1004 174 970 110 q 1039 342 1039 237 q 1005 522 1039 438 q 912 664 972 605 q 768 758 853 724 q 583 791 683 791 q 348 733 452 791 q 186 570 244 674 q 129 336 129 467 q 186 102 129 206 q 346 -60 243 -1 q 579 -118 449 -118 q 761 -85 676 -118 l 787 -158 q 579 -197 690 -197 q 365 -157 464 -197 q 195 -47 265 -117 q 86 122 125 22 q 46 336 46 221 m 440 496 q 412 465 440 496 q 385 334 385 433 q 440 172 385 234 q 582 110 495 110 q 685 136 643 110 q 761 208 727 161 l 761 458 q 582 558 688 558 q 440 496 495 558 z "},"A":{"ha":949,"x_min":16,"x_max":935,"o":"m 16 0 l 472 1039 l 478 1039 l 935 0 l 822 0 l 720 239 l 231 239 l 127 0 l 16 0 m 271 334 l 679 334 l 475 804 l 271 334 z "},"B":{"ha":911,"x_min":121,"x_max":865,"o":"m 121 0 l 121 1021 l 464 1021 q 699 950 618 1021 q 779 755 779 880 q 740 617 779 673 q 647 538 701 561 q 806 452 746 515 q 865 281 865 389 q 774 75 865 149 q 532 0 684 0 l 121 0 m 224 97 l 522 97 q 697 145 634 97 q 760 285 760 193 q 503 473 760 473 l 224 473 l 224 97 m 224 568 l 469 568 q 621 617 566 568 q 675 746 675 667 q 619 877 675 831 q 453 924 564 924 l 224 924 l 224 568 z "},"C":{"ha":943,"x_min":49,"x_max":921,"o":"m 49 510 q 113 781 49 661 q 294 970 178 902 q 557 1039 410 1039 q 914 893 768 1039 l 846 817 q 557 940 728 940 q 267 819 380 940 q 154 510 154 697 q 205 289 154 387 q 348 136 256 191 q 557 81 440 81 q 723 116 647 81 q 854 212 800 151 l 921 134 q 557 -18 779 -18 q 352 22 447 -18 q 191 132 258 62 q 87 299 125 201 q 49 510 49 397 z "},"D":{"ha":1012,"x_min":121,"x_max":964,"o":"m 121 0 l 121 1021 l 421 1021 q 820 887 677 1021 q 964 511 964 753 q 821 135 964 269 q 421 0 678 0 l 121 0 m 225 98 l 418 98 q 744 207 629 98 q 859 511 859 315 q 743 814 859 706 q 418 922 627 922 l 225 922 l 225 98 z "},"E":{"ha":790,"x_min":121,"x_max":749,"o":"m 121 0 l 121 1021 l 737 1021 l 737 922 l 225 922 l 225 566 l 677 566 l 677 469 l 225 469 l 225 98 l 749 98 l 749 0 l 121 0 z "},"F":{"ha":737,"x_min":121,"x_max":717,"o":"m 121 0 l 121 1021 l 717 1021 l 717 922 l 225 922 l 225 551 l 644 551 l 644 456 l 225 456 l 225 0 l 121 0 z "},"G":{"ha":1021,"x_min":49,"x_max":939,"o":"m 49 510 q 113 781 49 661 q 294 970 178 902 q 557 1039 410 1039 q 914 893 768 1039 l 846 817 q 557 940 728 940 q 267 819 380 940 q 154 510 154 697 q 207 289 154 387 q 355 136 259 191 q 571 81 450 81 q 833 164 726 81 l 833 425 l 553 425 l 553 518 l 939 518 l 939 111 q 571 -18 794 -18 q 360 22 458 -18 q 195 132 263 62 q 88 299 127 201 q 49 510 49 397 z "},"H":{"ha":1005,"x_min":121,"x_max":886,"o":"m 121 0 l 121 1021 l 225 1021 l 225 571 l 781 571 l 781 1021 l 886 1021 l 886 0 l 781 0 l 781 473 l 225 473 l 225 0 l 121 0 z "},"I":{"ha":345,"x_min":121,"x_max":225,"o":"m 121 0 l 121 1021 l 225 1021 l 225 0 l 121 0 z "},"J":{"ha":730,"x_min":31,"x_max":625,"o":"m 31 298 l 134 298 q 186 139 134 197 q 326 81 239 81 q 468 136 416 81 q 519 289 519 191 l 519 1021 l 625 1021 l 625 285 q 544 64 625 146 q 329 -18 463 -18 q 179 18 246 -18 q 72 127 113 54 q 31 298 31 200 z "},"K":{"ha":897,"x_min":121,"x_max":884,"o":"m 121 0 l 121 1021 l 225 1021 l 225 212 l 685 1021 l 808 1021 l 519 529 l 884 0 l 757 0 l 460 432 l 204 0 l 121 0 z "},"L":{"ha":754,"x_min":121,"x_max":737,"o":"m 121 0 l 121 1021 l 225 1021 l 225 96 l 737 96 l 737 0 l 121 0 z "},"M":{"ha":1201,"x_min":121,"x_max":1080,"o":"m 121 0 l 121 1039 l 126 1039 l 600 187 l 1075 1039 l 1080 1039 l 1080 0 l 975 0 l 975 675 l 606 -5 l 596 -5 l 225 675 l 225 0 l 121 0 z "},"N":{"ha":1006,"x_min":121,"x_max":888,"o":"m 121 0 l 121 1039 l 126 1039 l 782 250 l 782 1021 l 888 1021 l 888 -18 l 882 -18 l 225 772 l 225 0 l 121 0 z "},"O":{"ha":1114,"x_min":49,"x_max":1067,"o":"m 49 510 q 114 781 49 661 q 295 970 178 902 q 557 1039 411 1039 q 818 971 701 1039 q 1001 781 935 903 q 1067 510 1067 660 q 1001 238 1067 359 q 818 50 935 117 q 557 -18 701 -18 q 353 21 448 -18 q 192 131 258 61 q 87 299 125 201 q 49 510 49 397 m 205 731 q 180 682 205 731 q 154 510 154 633 q 205 289 154 387 q 349 136 257 191 q 557 81 441 81 q 765 136 673 81 q 908 289 857 191 q 960 510 960 387 q 908 731 960 633 q 765 885 857 829 q 557 940 673 940 q 349 885 441 940 q 205 731 257 829 z "},"P":{"ha":834,"x_min":121,"x_max":800,"o":"m 121 0 l 121 1021 l 447 1021 q 702 938 604 1021 q 800 705 800 854 q 703 473 800 556 q 447 390 606 390 l 225 390 l 225 0 l 121 0 m 225 485 l 439 485 q 625 542 557 485 q 693 705 693 599 q 624 869 693 811 q 439 926 555 926 l 225 926 l 225 485 z "},"Q":{"ha":1114,"x_min":49,"x_max":1095,"o":"m 49 510 q 114 781 49 661 q 295 970 178 902 q 557 1039 411 1039 q 818 971 701 1039 q 1001 781 935 903 q 1067 510 1067 660 q 1020 278 1067 384 q 888 100 972 172 l 1095 -140 l 964 -140 l 806 43 q 557 -18 692 -18 q 353 21 448 -18 q 192 131 258 61 q 87 299 125 201 q 49 510 49 397 m 205 731 q 180 682 205 731 q 154 510 154 633 q 205 289 154 387 q 349 136 257 191 q 557 81 441 81 q 739 122 659 81 l 572 318 l 646 382 l 821 176 q 923 321 887 235 q 960 510 960 407 q 908 731 960 633 q 765 885 857 829 q 557 940 673 940 q 349 885 441 940 q 205 731 257 829 z "},"R":{"ha":854,"x_min":117,"x_max":829,"o":"m 117 0 l 117 1021 l 422 1021 q 683 939 583 1021 q 782 711 782 858 q 724 526 782 600 q 564 421 665 451 l 829 0 l 704 0 l 452 401 l 222 401 l 222 0 l 117 0 m 222 496 l 415 496 q 605 551 536 496 q 675 711 675 607 q 605 871 675 816 q 415 926 535 926 l 222 926 l 222 496 z "},"S":{"ha":800,"x_min":43,"x_max":757,"o":"m 43 110 l 104 197 q 241 112 160 143 q 408 81 323 81 q 585 132 517 81 q 653 275 653 182 q 592 396 653 352 q 392 469 532 439 q 139 573 212 509 q 65 753 65 637 q 153 962 65 885 q 387 1039 241 1039 q 705 930 570 1039 l 650 844 q 386 940 533 940 q 230 893 290 940 q 171 755 171 847 q 225 640 171 677 q 421 571 279 602 q 680 465 602 531 q 757 282 757 399 q 661 65 757 148 q 406 -18 566 -18 q 43 110 191 -18 z "},"T":{"ha":891,"x_min":22,"x_max":869,"o":"m 22 925 l 22 1021 l 869 1021 l 869 925 l 498 925 l 498 0 l 393 0 l 393 925 l 22 925 z "},"U":{"ha":954,"x_min":109,"x_max":846,"o":"m 109 355 l 109 1021 l 212 1021 l 212 361 q 280 155 212 230 q 478 81 349 81 q 673 155 605 81 q 741 361 741 230 l 741 1021 l 846 1021 l 846 355 q 751 81 846 181 q 478 -18 656 -18 q 203 81 298 -18 q 109 355 109 181 z "},"V":{"ha":990,"x_min":17,"x_max":974,"o":"m 17 1021 l 131 1021 l 496 215 l 860 1021 l 974 1021 l 498 -17 l 493 -17 l 17 1021 z "},"W":{"ha":1369,"x_min":17,"x_max":1354,"o":"m 17 1021 l 134 1021 l 410 264 l 682 1021 l 688 1021 l 960 264 l 1238 1021 l 1354 1021 l 962 -17 l 957 -17 l 685 736 l 414 -17 l 408 -17 l 17 1021 z "},"X":{"ha":911,"x_min":21,"x_max":890,"o":"m 21 0 l 383 519 l 36 1021 l 160 1021 l 456 600 l 751 1021 l 875 1021 l 528 519 l 890 0 l 766 0 l 456 440 l 144 0 l 21 0 z "},"Y":{"ha":890,"x_min":11,"x_max":878,"o":"m 11 1019 l 135 1019 l 444 545 l 754 1019 l 878 1019 l 497 439 l 497 0 l 392 0 l 392 437 l 11 1019 z "},"Z":{"ha":795,"x_min":39,"x_max":757,"o":"m 39 0 l 39 5 l 575 924 l 62 924 l 62 1021 l 741 1021 l 741 1015 l 207 97 l 757 97 l 757 0 l 39 0 z "},"[":{"ha":410,"x_min":77,"x_max":375,"o":"m 77 -168 l 77 971 l 375 971 l 375 886 l 175 886 l 175 -83 l 375 -83 l 375 -168 l 77 -168 z "},"\\":{"ha":623,"x_min":7,"x_max":616,"o":"m 7 1019 l 110 1019 l 616 0 l 513 0 l 7 1019 z "},"]":{"ha":419,"x_min":35,"x_max":343,"o":"m 35 -83 l 244 -83 l 244 886 l 35 886 l 35 971 l 343 971 l 343 -168 l 35 -168 l 35 -83 z "},"^":{"ha":744,"x_min":31,"x_max":714,"o":"m 31 642 l 372 1055 l 714 642 l 618 642 l 372 939 l 127 642 l 31 642 z "},"_":{"ha":1115,"x_min":58,"x_max":1057,"o":"m 58 0 l 1057 0 l 1057 -93 l 58 -93 l 58 0 z "},"`":{"ha":382,"x_min":40,"x_max":361,"o":"m 40 974 l 167 974 l 361 803 l 253 803 l 40 974 z "},"a":{"ha":812,"x_min":45,"x_max":699,"o":"m 45 347 q 85 533 45 450 q 199 662 125 615 q 367 708 273 708 q 508 678 450 708 q 603 603 567 648 l 606 694 l 699 694 l 699 0 l 606 0 l 603 93 q 509 17 568 47 q 367 -14 450 -14 q 135 88 224 -14 q 45 347 45 189 m 146 347 q 212 152 146 228 q 382 77 278 77 q 508 109 456 77 q 599 203 559 142 l 599 492 q 507 584 558 551 q 382 616 456 616 q 212 541 279 616 q 146 347 146 465 z "},"b":{"ha":812,"x_min":114,"x_max":770,"o":"m 114 0 l 114 1055 l 215 1055 l 215 608 q 447 708 295 708 q 679 606 588 708 q 770 347 770 504 q 679 88 770 190 q 447 -14 589 -14 q 210 93 291 -14 l 207 0 l 114 0 m 215 203 q 305 110 254 142 q 431 77 356 77 q 601 152 534 77 q 667 347 667 228 q 600 541 667 465 q 431 616 534 616 q 306 584 357 616 q 215 492 254 551 l 215 203 z "},"c":{"ha":694,"x_min":45,"x_max":667,"o":"m 139 87 q 92 137 139 87 q 45 347 45 188 q 137 607 45 507 q 389 708 229 708 q 661 561 563 708 l 586 503 q 389 618 514 618 q 209 543 272 618 q 146 347 146 468 q 211 152 146 227 q 392 77 275 77 q 509 109 458 77 q 591 192 560 142 l 667 134 q 392 -14 568 -14 q 139 87 233 -14 z "},"d":{"ha":812,"x_min":45,"x_max":699,"o":"m 45 347 q 85 533 45 450 q 199 662 125 615 q 367 708 273 708 q 599 608 516 708 l 599 1055 l 699 1055 l 699 0 l 606 0 l 603 93 q 509 17 568 47 q 367 -14 450 -14 q 135 88 224 -14 q 45 347 45 189 m 146 347 q 212 152 146 228 q 382 77 278 77 q 508 109 456 77 q 599 203 559 142 l 599 492 q 507 584 558 551 q 382 616 456 616 q 212 541 279 616 q 146 347 146 465 z "},"e":{"ha":730,"x_min":45,"x_max":685,"o":"m 45 346 q 136 606 45 503 q 372 708 227 708 q 543 660 471 708 q 650 532 614 612 q 685 353 685 453 l 685 311 l 146 311 q 212 137 149 200 q 389 74 275 74 q 514 102 460 74 q 599 172 568 130 l 669 113 q 389 -14 568 -14 q 137 86 229 -14 q 45 346 45 186 m 146 395 l 585 395 q 525 558 581 496 q 372 619 469 619 q 213 558 275 619 q 146 395 151 496 z "},"f":{"ha":476,"x_min":26,"x_max":519,"o":"m 26 606 l 26 694 l 153 694 l 153 817 q 212 988 153 922 q 372 1055 272 1055 q 519 1004 462 1055 l 476 925 q 376 965 436 965 q 287 925 320 965 q 254 821 254 884 l 254 694 l 449 694 l 449 606 l 254 606 l 254 0 l 153 0 l 153 606 l 26 606 z "},"g":{"ha":814,"x_min":45,"x_max":699,"o":"m 45 347 q 85 533 45 450 q 199 662 125 615 q 367 708 273 708 q 508 678 450 708 q 603 603 567 648 l 606 694 l 699 694 l 699 12 q 605 -241 699 -148 q 354 -334 511 -334 q 47 -191 162 -334 l 114 -125 q 353 -243 212 -243 q 532 -174 465 -243 q 599 9 599 -106 l 599 86 q 367 -14 516 -14 q 135 88 224 -14 q 45 347 45 189 m 146 347 q 212 152 146 228 q 382 77 278 77 q 508 109 456 77 q 599 203 559 142 l 599 492 q 507 584 558 551 q 382 616 456 616 q 212 541 279 616 q 146 347 146 465 z "},"h":{"ha":800,"x_min":114,"x_max":705,"o":"m 114 0 l 114 1055 l 215 1055 l 215 606 q 441 708 307 708 q 635 628 565 708 q 705 415 705 548 l 705 0 l 604 0 l 604 410 q 554 555 604 500 q 421 611 504 611 q 308 580 356 611 q 215 490 259 549 l 215 0 l 114 0 z "},"i":{"ha":330,"x_min":93,"x_max":239,"o":"m 114 868 q 103 878 114 868 q 93 920 93 888 q 114 972 93 951 q 165 993 134 993 q 218 972 197 993 q 239 920 239 951 q 218 868 239 888 q 165 847 197 847 q 114 868 134 847 m 114 0 l 114 694 l 215 694 l 215 0 l 114 0 z "},"j":{"ha":330,"x_min":-212,"x_max":239,"o":"m -212 -254 l -146 -186 q -22 -243 -94 -243 q 76 -205 38 -243 q 114 -107 114 -167 l 114 694 l 215 694 l 215 -100 q 149 -267 215 -200 q -20 -334 82 -334 q -212 -254 -135 -334 m 114 868 q 103 878 114 868 q 93 920 93 888 q 114 972 93 951 q 165 993 134 993 q 218 972 197 993 q 239 920 239 951 q 218 868 239 888 q 165 847 197 847 q 114 868 134 847 z "},"k":{"ha":725,"x_min":114,"x_max":713,"o":"m 114 0 l 114 1055 l 215 1055 l 215 186 l 550 694 l 669 694 l 457 382 l 713 0 l 593 0 l 395 297 l 197 0 l 114 0 z "},"l":{"ha":330,"x_min":114,"x_max":215,"o":"m 114 0 l 114 1055 l 215 1055 l 215 0 l 114 0 z "},"m":{"ha":1262,"x_min":114,"x_max":1166,"o":"m 114 0 l 114 694 l 207 694 l 210 603 q 304 678 247 648 q 437 708 361 708 q 570 672 514 708 q 657 572 627 637 q 914 708 753 708 q 1099 628 1031 708 q 1166 415 1166 548 l 1166 0 l 1065 0 l 1065 410 q 1017 555 1065 500 q 890 611 969 611 q 778 578 827 611 q 685 485 729 546 q 690 422 690 457 l 690 0 l 590 0 l 590 410 q 542 555 590 500 q 415 611 494 611 q 306 580 353 611 q 215 492 259 549 l 215 0 l 114 0 z "},"n":{"ha":800,"x_min":114,"x_max":705,"o":"m 114 0 l 114 694 l 207 694 l 210 602 q 306 677 247 647 q 441 708 364 708 q 635 628 565 708 q 705 415 705 548 l 705 0 l 604 0 l 604 410 q 554 555 604 500 q 421 611 504 611 q 308 580 356 611 q 215 490 259 549 l 215 0 l 114 0 z "},"o":{"ha":789,"x_min":45,"x_max":746,"o":"m 143 88 q 94 139 143 88 q 45 346 45 189 q 143 605 45 503 q 395 708 242 708 q 646 605 547 708 q 746 346 746 502 q 646 88 746 190 q 395 -14 547 -14 q 143 88 242 -14 m 216 539 q 181 501 216 539 q 146 346 146 463 q 216 153 146 229 q 395 77 286 77 q 573 153 503 77 q 643 346 643 229 q 573 539 643 463 q 395 616 503 616 q 216 539 287 616 z "},"p":{"ha":812,"x_min":114,"x_max":770,"o":"m 114 -319 l 114 694 l 207 694 l 210 602 q 447 708 291 708 q 679 606 588 708 q 770 347 770 504 q 679 88 770 190 q 447 -14 589 -14 q 215 85 296 -14 l 215 -319 l 114 -319 m 215 203 q 305 110 254 142 q 431 77 356 77 q 601 152 534 77 q 667 347 667 228 q 601 542 667 467 q 431 616 534 616 q 306 584 357 616 q 215 492 254 551 l 215 203 z "},"q":{"ha":812,"x_min":45,"x_max":699,"o":"m 45 347 q 85 533 45 450 q 199 662 125 615 q 367 708 273 708 q 509 678 450 708 q 603 602 568 648 l 606 694 l 699 694 l 699 -319 l 599 -319 l 599 85 q 367 -14 515 -14 q 135 88 224 -14 q 45 347 45 189 m 212 542 q 179 504 212 542 q 146 347 146 467 q 212 152 146 228 q 382 77 278 77 q 508 109 456 77 q 599 203 559 142 l 599 492 q 507 584 558 551 q 382 616 456 616 q 212 542 278 616 z "},"r":{"ha":439,"x_min":114,"x_max":421,"o":"m 114 0 l 114 694 l 207 694 l 211 596 q 294 676 240 644 q 421 708 348 708 l 421 607 l 411 607 q 302 576 348 607 q 215 484 256 545 l 215 0 l 114 0 z "},"s":{"ha":623,"x_min":50,"x_max":572,"o":"m 50 69 l 97 151 q 309 77 184 77 q 426 106 382 77 q 471 191 471 135 q 432 264 471 239 q 301 311 394 290 q 125 383 178 338 q 72 507 72 428 q 139 655 72 602 q 318 708 205 708 q 542 632 450 708 l 497 554 q 319 616 414 616 q 211 591 250 616 q 172 513 172 566 q 208 443 172 465 q 338 399 243 421 q 516 321 460 370 q 572 196 572 273 q 500 44 572 101 q 309 -14 429 -14 q 50 69 151 -14 z "},"t":{"ha":534,"x_min":18,"x_max":528,"o":"m 18 606 l 18 694 l 160 694 l 160 930 l 260 930 l 260 694 l 489 694 l 489 606 l 260 606 l 260 220 q 296 116 260 153 q 392 79 332 79 q 496 102 457 79 l 528 22 q 385 -14 472 -14 q 220 46 280 -14 q 160 218 160 106 l 160 606 l 18 606 z "},"u":{"ha":786,"x_min":96,"x_max":672,"o":"m 96 275 l 96 694 l 197 694 l 197 279 q 243 137 197 191 q 366 82 289 82 q 480 113 433 82 q 572 203 527 143 l 572 694 l 672 694 l 672 0 l 579 0 l 576 92 q 343 -14 488 -14 q 161 65 227 -14 q 96 275 96 144 z "},"v":{"ha":728,"x_min":17,"x_max":711,"o":"m 17 694 l 129 694 l 364 199 l 600 694 l 711 694 l 367 -14 l 361 -14 l 17 694 z "},"w":{"ha":1053,"x_min":17,"x_max":1036,"o":"m 17 694 l 129 694 l 321 216 l 524 694 l 529 694 l 732 216 l 925 694 l 1036 694 l 741 -14 l 734 -14 l 526 471 l 318 -14 l 313 -14 l 17 694 z "},"x":{"ha":671,"x_min":22,"x_max":646,"o":"m 22 0 l 267 353 l 32 694 l 151 694 l 334 427 l 517 694 l 636 694 l 401 353 l 646 0 l 526 0 l 334 278 l 142 0 l 22 0 z "},"y":{"ha":747,"x_min":26,"x_max":721,"o":"m 26 694 l 138 694 l 374 195 l 610 694 l 721 694 l 231 -319 l 117 -319 l 319 81 l 26 694 z "},"z":{"ha":611,"x_min":33,"x_max":576,"o":"m 33 0 l 33 5 l 412 606 l 54 606 l 54 694 l 576 694 l 576 689 l 195 87 l 576 87 l 576 0 l 33 0 z "},"{":{"ha":460,"x_min":40,"x_max":427,"o":"m 40 399 l 40 404 q 178 559 202 441 l 164 665 q 162 803 149 745 q 213 898 174 861 q 306 953 252 935 q 427 971 359 971 l 427 886 q 356 876 388 886 q 299 843 324 865 q 263 779 273 820 q 260 684 252 739 l 273 575 q 192 401 299 447 q 273 228 300 356 l 260 119 q 263 24 252 64 q 299 -40 273 -17 q 356 -73 324 -62 q 427 -83 388 -83 l 427 -168 q 306 -150 359 -168 q 213 -95 252 -132 q 162 0 174 -58 q 164 138 149 58 l 178 243 q 40 399 202 362 z "},"|":{"ha":316,"x_min":110,"x_max":207,"o":"m 110 -168 l 110 971 l 207 971 l 207 -168 l 110 -168 z "},"}":{"ha":460,"x_min":35,"x_max":421,"o":"m 35 -83 q 105 -73 73 -83 q 162 -40 137 -62 q 198 24 188 -17 q 201 119 209 64 l 187 228 q 269 401 161 355 q 187 575 161 447 l 201 684 q 198 779 209 739 q 162 843 188 820 q 105 876 137 865 q 35 886 73 886 l 35 971 q 156 953 102 971 q 248 898 210 935 q 299 803 287 861 q 297 665 312 745 l 283 559 q 421 404 259 441 l 421 399 q 283 243 259 362 l 297 138 q 299 0 312 58 q 248 -95 287 -58 q 156 -150 210 -132 q 35 -168 102 -168 l 35 -83 z "},"~":{"ha":805,"x_min":40,"x_max":765,"o":"m 40 436 q 125 556 71 512 q 256 600 180 600 q 331 587 296 600 q 390 555 366 574 q 438 518 414 537 q 490 487 461 500 q 550 473 518 473 q 643 505 605 473 q 701 590 681 537 l 765 545 q 680 425 734 469 q 550 380 625 380 q 474 393 509 380 q 416 425 440 406 q 370 461 393 443 q 319 492 348 479 q 256 505 290 505 q 104 390 149 505 l 40 436 z "}," ":{"ha":334,"x_min":0,"x_max":0,"o":""},"¡":{"ha":341,"x_min":97,"x_max":243,"o":"m 119 581 q 108 592 119 581 q 97 633 97 603 q 118 685 97 664 q 171 705 140 705 q 222 685 201 705 q 243 633 243 664 q 222 581 243 603 q 171 559 201 559 q 119 581 140 559 m 121 -334 l 121 418 l 221 418 l 221 -334 l 121 -334 z "},"¢":{"ha":701,"x_min":45,"x_max":667,"o":"m 45 347 q 125 594 45 496 q 346 705 205 692 l 346 885 l 433 885 l 433 705 q 661 561 574 688 l 586 503 q 389 618 514 618 q 209 543 272 618 q 146 347 146 468 q 211 152 146 227 q 392 77 275 77 q 509 109 458 77 q 591 192 560 142 l 667 134 q 433 -11 581 5 l 433 -200 l 346 -200 l 346 -11 q 125 102 206 3 q 45 347 45 200 z "},"£":{"ha":790,"x_min":22,"x_max":729,"o":"m 22 0 l 22 5 q 109 165 88 117 q 143 454 172 309 q 142 461 142 458 l 140 469 l 31 469 l 31 554 l 121 554 q 98 715 98 644 q 176 954 98 869 q 387 1039 253 1039 q 562 982 490 1039 q 661 844 633 925 l 564 814 q 497 910 544 873 q 385 946 451 946 q 247 886 294 946 q 200 724 200 826 q 224 554 200 665 l 489 554 l 489 469 l 243 469 q 257 361 257 411 q 176 93 257 227 l 467 93 q 590 133 551 93 q 629 262 629 172 l 729 262 q 484 0 729 0 l 22 0 z "},"¤":{"ha":895,"x_min":60,"x_max":836,"o":"m 60 36 l 231 205 q 180 366 180 276 q 231 526 180 452 l 60 694 l 126 761 l 296 590 q 447 640 361 640 q 600 590 535 640 l 770 761 l 836 694 l 665 526 q 714 366 714 454 q 665 205 714 274 l 836 36 l 770 -29 l 599 140 q 447 93 536 93 q 296 140 360 93 l 126 -29 l 60 36 m 268 366 q 318 228 268 283 q 447 172 369 172 q 576 228 525 172 q 628 366 628 283 q 576 505 628 449 q 447 561 525 561 q 318 505 369 561 q 268 366 268 450 z "},"¥":{"ha":887,"x_min":11,"x_max":878,"o":"m 11 1019 l 135 1019 l 444 545 l 753 1019 l 878 1019 l 538 505 l 725 505 l 725 427 l 497 427 l 497 302 l 725 302 l 725 224 l 497 224 l 497 0 l 392 0 l 392 224 l 164 224 l 164 302 l 392 302 l 392 427 l 164 427 l 164 505 l 350 505 l 11 1019 z "},"¦":{"ha":316,"x_min":110,"x_max":207,"o":"m 110 -168 l 110 260 l 207 260 l 207 -168 l 110 -168 m 110 543 l 110 971 l 207 971 l 207 543 l 110 543 z "},"§":{"ha":574,"x_min":41,"x_max":533,"o":"m 41 -39 l 103 25 q 257 -43 164 -43 q 372 -5 327 -43 q 416 94 416 33 q 393 164 416 137 q 319 210 369 191 q 270 220 302 215 q 229 228 238 226 q 97 309 147 247 q 47 456 47 370 q 82 579 47 526 q 178 656 117 632 q 65 827 65 709 q 132 978 65 918 q 306 1039 198 1039 q 497 965 423 1039 l 440 901 q 306 954 385 954 q 201 919 241 954 q 160 828 160 884 q 186 750 160 780 q 265 701 212 720 q 318 689 281 696 q 376 675 355 682 q 490 592 448 652 q 533 456 533 533 q 498 333 533 387 q 404 256 463 280 q 513 94 513 205 q 440 -64 513 0 q 256 -127 368 -127 q 41 -39 122 -127 m 181 564 q 160 543 181 564 q 139 456 139 522 q 181 349 139 390 q 290 307 224 307 q 400 349 357 307 q 443 456 443 391 q 400 564 443 522 q 290 606 357 606 q 181 564 224 606 z "},"¨":{"ha":411,"x_min":31,"x_max":380,"o":"m 48 839 q 40 849 48 839 q 31 885 31 858 q 48 930 31 912 q 93 949 66 949 q 139 930 121 949 q 158 885 158 912 q 139 839 158 858 q 93 821 121 821 q 48 839 66 821 m 271 839 q 262 849 271 839 q 253 885 253 858 q 271 930 253 912 q 315 949 288 949 q 362 930 343 949 q 380 885 380 912 q 362 839 380 858 q 315 821 343 821 q 271 839 289 821 z "},"©":{"ha":904,"x_min":46,"x_max":860,"o":"m 46 648 q 98 865 46 768 q 243 1017 150 962 q 453 1072 336 1072 q 661 1017 568 1072 q 807 865 755 962 q 860 648 860 768 q 807 432 860 528 q 661 281 754 335 q 453 227 568 227 q 161 346 275 227 q 46 648 46 465 m 117 648 q 212 394 117 494 q 453 293 307 293 q 692 394 597 293 q 787 648 787 495 q 692 903 787 801 q 453 1006 597 1006 q 212 904 307 1006 q 117 648 117 802 m 231 652 q 296 824 231 755 q 464 892 362 892 q 628 823 565 892 l 583 774 q 464 823 536 823 q 346 776 391 823 q 301 652 301 728 q 346 527 301 574 q 464 479 391 479 q 585 530 538 479 l 631 481 q 464 411 566 411 q 296 479 361 411 q 231 652 231 547 z "},"ª":{"ha":590,"x_min":39,"x_max":505,"o":"m 39 782 q 101 964 39 892 q 260 1036 163 1036 q 425 964 364 1036 l 428 1026 l 505 1026 l 505 539 l 428 539 l 425 602 q 260 529 364 529 q 101 601 163 529 q 39 782 39 672 m 167 911 q 145 886 167 911 q 123 782 123 861 q 167 653 123 703 q 279 604 210 604 q 419 684 365 604 l 419 882 q 279 961 365 961 q 167 911 211 961 z "},"«":{"ha":643,"x_min":21,"x_max":623,"o":"m 21 353 l 21 358 l 222 636 l 321 636 l 121 355 l 321 75 l 222 75 l 21 353 m 322 353 l 322 358 l 524 636 l 623 636 l 422 355 l 623 75 l 524 75 l 322 353 z "},"¬":{"ha":783,"x_min":52,"x_max":732,"o":"m 52 517 l 52 589 l 732 589 l 732 224 l 659 224 l 659 517 l 52 517 z "},"­":{"ha":611,"x_min":58,"x_max":553,"o":"m 58 313 l 58 406 l 553 406 l 553 313 l 58 313 z "},"®":{"ha":904,"x_min":46,"x_max":860,"o":"m 46 648 q 98 865 46 768 q 243 1017 150 962 q 453 1072 336 1072 q 661 1017 568 1072 q 807 865 755 962 q 860 648 860 768 q 807 432 860 528 q 661 281 754 335 q 453 227 568 227 q 161 346 275 227 q 46 648 46 465 m 117 648 q 212 394 117 494 q 453 293 307 293 q 692 394 597 293 q 787 648 787 495 q 692 903 787 801 q 453 1006 597 1006 q 212 904 307 1006 q 117 648 117 802 m 297 415 l 297 886 l 453 886 q 574 847 526 886 q 623 739 623 808 q 597 653 623 689 q 528 602 571 618 l 644 415 l 562 415 l 454 589 l 368 589 l 368 415 l 297 415 m 368 654 l 447 654 q 524 675 496 654 q 551 737 551 696 q 524 799 551 778 q 447 821 496 821 l 368 821 l 368 654 z "},"¯":{"ha":411,"x_min":31,"x_max":380,"o":"m 31 832 l 31 905 l 380 905 l 380 832 l 31 832 z "},"°":{"ha":460,"x_min":45,"x_max":416,"o":"m 45 852 q 98 985 45 932 q 232 1038 151 1038 q 364 985 312 1038 q 416 852 416 932 q 365 721 416 772 q 232 669 313 669 q 98 721 151 669 q 45 852 45 772 m 118 852 q 150 771 118 804 q 232 739 182 739 q 312 771 280 739 q 345 852 345 804 q 312 935 345 902 q 232 968 280 968 q 150 935 182 968 q 118 852 118 903 z "},"±":{"ha":655,"x_min":57,"x_max":597,"o":"m 57 143 l 57 236 l 597 236 l 597 143 l 57 143 m 57 572 l 57 667 l 281 667 l 281 889 l 374 889 l 374 667 l 597 667 l 597 572 l 374 572 l 374 349 l 281 349 l 281 572 l 57 572 z "},"²":{"ha":479,"x_min":61,"x_max":436,"o":"m 61 987 q 244 1140 91 1140 q 378 1091 326 1140 q 429 965 429 1042 q 411 874 429 914 q 351 786 392 835 l 210 619 l 436 619 l 436 547 l 71 547 l 71 553 l 286 828 q 335 899 321 869 q 349 966 349 928 q 319 1040 349 1013 q 244 1068 290 1068 q 134 972 152 1068 l 61 987 z "},"³":{"ha":475,"x_min":53,"x_max":441,"o":"m 53 677 l 122 697 q 170 632 140 654 q 250 610 199 610 q 332 639 300 610 q 363 717 363 668 q 328 790 363 760 q 240 819 294 819 l 174 819 l 174 882 l 243 882 q 314 907 285 883 q 343 975 343 931 q 314 1042 343 1017 q 241 1068 286 1068 q 131 987 161 1068 l 62 1018 q 244 1140 106 1140 q 372 1093 322 1140 q 421 974 421 1046 q 338 850 421 886 q 414 797 386 832 q 441 713 441 762 q 389 585 441 634 q 250 536 336 536 q 123 572 171 536 q 53 677 75 607 z "},"´":{"ha":382,"x_min":21,"x_max":342,"o":"m 21 803 l 215 974 l 342 974 l 129 803 l 21 803 z "},"µ":{"ha":805,"x_min":114,"x_max":690,"o":"m 114 -319 l 114 694 l 215 694 l 215 279 q 261 137 215 191 q 383 82 307 82 q 498 113 451 82 q 590 203 545 143 l 590 694 l 690 694 l 690 0 l 597 0 l 595 92 q 370 -14 506 -14 q 215 49 266 -14 l 215 -319 l 114 -319 z "},"¶":{"ha":933,"x_min":35,"x_max":879,"o":"m 35 717 q 138 943 35 865 q 414 1021 242 1021 l 879 1021 l 879 937 l 751 937 l 751 -153 l 663 -153 l 663 937 l 505 937 l 505 -153 l 418 -153 l 418 427 l 412 427 q 266 444 333 427 q 146 496 199 462 q 64 588 94 531 q 35 717 35 644 z "},"·":{"ha":237,"x_min":45,"x_max":193,"o":"m 45 355 q 65 409 45 388 q 118 431 86 431 q 172 409 150 431 q 193 355 193 387 q 172 303 193 324 q 118 282 150 282 q 65 303 86 282 q 45 355 45 324 z "},"¸":{"ha":337,"x_min":31,"x_max":311,"o":"m 31 -293 l 74 -243 q 160 -283 108 -283 q 216 -266 194 -283 q 237 -214 237 -248 q 175 -147 237 -158 q 110 -151 144 -142 l 106 -146 l 134 16 l 197 11 l 182 -85 q 276 -122 241 -89 q 311 -211 311 -155 q 271 -311 311 -275 q 163 -347 231 -347 q 31 -293 77 -347 z "},"¹":{"ha":349,"x_min":40,"x_max":265,"o":"m 40 1004 l 262 1140 l 265 1140 l 265 547 l 186 547 l 186 1007 l 77 933 l 40 1004 z "},"º":{"ha":573,"x_min":39,"x_max":534,"o":"m 109 601 q 74 636 109 601 q 39 782 39 672 q 109 964 39 892 q 288 1036 179 1036 q 464 964 394 1036 q 534 782 534 891 q 464 601 534 673 q 288 529 394 529 q 109 601 178 529 m 170 910 q 147 885 170 910 q 123 782 123 859 q 170 654 123 705 q 288 604 216 604 q 404 654 357 604 q 450 782 450 705 q 404 910 450 859 q 288 961 357 961 q 170 910 216 961 z "},"»":{"ha":643,"x_min":21,"x_max":623,"o":"m 21 75 l 221 355 l 21 636 l 119 636 l 321 358 l 321 353 l 119 75 l 21 75 m 322 75 l 521 355 l 322 636 l 421 636 l 623 358 l 623 353 l 421 75 l 322 75 z "},"¼":{"ha":986,"x_min":40,"x_max":958,"o":"m 40 865 l 262 1002 l 265 1002 l 265 408 l 186 408 l 186 868 l 77 794 l 40 865 m 175 0 l 681 1019 l 777 1019 l 271 0 l 175 0 m 505 106 l 505 110 l 871 595 l 873 595 l 873 171 l 958 171 l 958 106 l 873 106 l 873 0 l 796 0 l 796 106 l 505 106 m 637 170 l 798 170 l 798 390 l 637 170 z "},"½":{"ha":1069,"x_min":40,"x_max":1026,"o":"m 40 865 l 262 1002 l 265 1002 l 265 408 l 186 408 l 186 868 l 77 794 l 40 865 m 175 0 l 681 1019 l 777 1019 l 271 0 l 175 0 m 652 440 q 835 593 682 593 q 968 544 917 593 q 1019 418 1019 495 q 1001 327 1019 367 q 942 239 983 287 l 800 72 l 1026 72 l 1026 0 l 661 0 l 661 5 l 876 281 q 925 351 911 321 q 939 419 939 381 q 909 493 939 465 q 835 521 880 521 q 724 425 742 521 l 652 440 z "},"¾":{"ha":1112,"x_min":53,"x_max":1084,"o":"m 53 539 l 122 558 q 170 493 140 515 q 250 471 199 471 q 332 500 300 471 q 363 578 363 529 q 328 651 363 621 q 240 681 293 681 l 174 681 l 174 743 l 243 743 q 314 768 285 745 q 343 836 343 792 q 314 903 343 878 q 241 929 286 929 q 131 848 161 929 l 62 879 q 244 1002 106 1002 q 372 954 322 1002 q 421 835 421 907 q 338 711 421 747 q 414 659 386 694 q 441 574 441 623 q 389 446 441 495 q 250 397 336 397 q 123 433 171 397 q 53 539 75 469 m 301 0 l 807 1019 l 903 1019 l 397 0 l 301 0 m 632 106 l 632 110 l 997 595 l 1000 595 l 1000 171 l 1084 171 l 1084 106 l 1000 106 l 1000 0 l 922 0 l 922 106 l 632 106 m 764 170 l 924 170 l 924 390 l 764 170 z "},"¿":{"ha":656,"x_min":56,"x_max":628,"o":"m 56 -79 q 68 9 56 -31 q 101 78 81 50 q 146 131 121 106 q 196 177 171 155 q 240 221 220 199 q 273 272 260 243 q 286 334 286 301 l 286 418 l 387 418 l 387 322 q 375 248 387 282 q 342 190 362 214 q 298 142 323 165 q 250 96 274 119 q 206 49 226 73 q 174 -7 186 25 q 161 -78 161 -40 q 212 -210 161 -162 q 340 -257 263 -257 q 528 -98 494 -257 l 628 -117 q 339 -351 576 -351 q 135 -275 214 -351 q 56 -79 56 -199 m 264 633 q 284 685 264 665 q 336 705 305 705 q 388 685 368 705 q 408 633 408 665 q 388 581 408 603 q 336 559 367 559 q 285 581 306 559 q 264 633 264 603 z "},"À":{"ha":949,"x_min":16,"x_max":935,"o":"m 16 0 l 472 1039 l 478 1039 l 935 0 l 822 0 l 720 239 l 231 239 l 127 0 l 16 0 m 218 1229 l 349 1229 l 539 1072 l 422 1072 l 218 1229 m 271 334 l 679 334 l 475 804 l 271 334 z "},"Á":{"ha":949,"x_min":16,"x_max":935,"o":"m 16 0 l 472 1039 l 478 1039 l 935 0 l 822 0 l 720 239 l 231 239 l 127 0 l 16 0 m 271 334 l 679 334 l 475 804 l 271 334 m 399 1072 l 589 1229 l 720 1229 l 515 1072 l 399 1072 z "},"Â":{"ha":949,"x_min":16,"x_max":935,"o":"m 16 0 l 472 1039 l 478 1039 l 935 0 l 822 0 l 720 239 l 231 239 l 127 0 l 16 0 m 264 1071 l 473 1265 l 684 1071 l 583 1071 l 473 1173 l 363 1071 l 264 1071 m 271 334 l 679 334 l 475 804 l 271 334 z "},"Ã":{"ha":949,"x_min":16,"x_max":935,"o":"m 16 0 l 472 1039 l 478 1039 l 935 0 l 822 0 l 720 239 l 231 239 l 127 0 l 16 0 m 257 1079 q 293 1215 257 1169 q 386 1260 328 1260 q 439 1248 416 1260 q 478 1219 463 1236 q 506 1184 493 1202 q 535 1155 519 1167 q 568 1143 550 1143 q 623 1250 623 1143 l 692 1250 q 656 1115 692 1161 q 562 1069 621 1069 q 516 1078 536 1069 q 483 1100 495 1086 q 457 1128 470 1113 q 436 1156 445 1143 q 413 1178 427 1169 q 383 1186 399 1186 q 326 1079 326 1186 l 257 1079 m 271 334 l 679 334 l 475 804 l 271 334 z "},"Ä":{"ha":949,"x_min":16,"x_max":935,"o":"m 16 0 l 472 1039 l 478 1039 l 935 0 l 822 0 l 720 239 l 231 239 l 127 0 l 16 0 m 271 334 l 679 334 l 475 804 l 271 334 m 318 1101 q 309 1110 318 1101 q 300 1146 300 1119 q 318 1192 300 1173 q 363 1210 336 1210 q 409 1192 391 1210 q 428 1146 428 1173 q 409 1101 428 1119 q 363 1083 391 1083 q 318 1101 336 1083 m 540 1101 q 531 1110 540 1101 q 522 1146 522 1119 q 540 1192 522 1173 q 585 1210 557 1210 q 631 1192 612 1210 q 650 1146 650 1173 q 631 1101 650 1119 q 585 1083 612 1083 q 540 1101 557 1083 z "},"Å":{"ha":949,"x_min":16,"x_max":935,"o":"m 16 0 l 472 1039 l 478 1039 l 935 0 l 822 0 l 720 239 l 231 239 l 127 0 l 16 0 m 271 334 l 679 334 l 475 804 l 271 334 m 332 1211 q 372 1312 332 1272 q 475 1353 413 1353 q 576 1312 535 1353 q 616 1211 616 1272 q 576 1111 616 1150 q 475 1071 536 1071 q 372 1111 413 1071 q 332 1211 332 1150 m 396 1211 q 418 1154 396 1177 q 475 1132 441 1132 q 531 1154 509 1132 q 554 1211 554 1177 q 531 1269 554 1245 q 475 1292 508 1292 q 419 1269 441 1292 q 396 1211 396 1245 z "},"Æ":{"ha":1194,"x_min":16,"x_max":1154,"o":"m 16 0 l 453 1021 l 1143 1021 l 1143 922 l 549 922 l 699 562 l 1083 562 l 1083 471 l 736 471 l 892 98 l 1154 98 l 1154 0 l 818 0 l 717 244 l 232 244 l 132 0 l 16 0 m 268 329 l 682 329 l 475 831 l 268 329 z "},"Ç":{"ha":943,"x_min":49,"x_max":921,"o":"m 49 510 q 113 781 49 661 q 294 970 178 902 q 557 1039 410 1039 q 914 893 768 1039 l 846 817 q 557 940 728 940 q 267 819 380 940 q 154 510 154 697 q 205 289 154 387 q 348 136 256 191 q 557 81 440 81 q 723 116 647 81 q 854 212 800 151 l 921 134 q 557 -18 779 -18 l 551 -18 l 542 -85 q 636 -122 601 -89 q 671 -211 671 -155 q 630 -311 671 -275 q 522 -347 590 -347 q 390 -293 436 -347 l 433 -243 q 519 -283 467 -283 q 576 -266 554 -283 q 597 -214 597 -248 q 534 -147 597 -158 q 469 -151 504 -142 l 465 -146 l 488 -14 q 259 73 359 2 q 104 258 159 144 q 49 510 49 372 z "},"È":{"ha":790,"x_min":121,"x_max":749,"o":"m 121 0 l 121 1021 l 737 1021 l 737 922 l 225 922 l 225 566 l 677 566 l 677 469 l 225 469 l 225 98 l 749 98 l 749 0 l 121 0 m 182 1229 l 313 1229 l 503 1072 l 386 1072 l 182 1229 z "},"É":{"ha":790,"x_min":121,"x_max":749,"o":"m 121 0 l 121 1021 l 737 1021 l 737 922 l 225 922 l 225 566 l 677 566 l 677 469 l 225 469 l 225 98 l 749 98 l 749 0 l 121 0 m 364 1072 l 554 1229 l 685 1229 l 481 1072 l 364 1072 z "},"Ê":{"ha":790,"x_min":121,"x_max":749,"o":"m 121 0 l 121 1021 l 737 1021 l 737 922 l 225 922 l 225 566 l 677 566 l 677 469 l 225 469 l 225 98 l 749 98 l 749 0 l 121 0 m 228 1071 l 437 1265 l 647 1071 l 547 1071 l 437 1173 l 326 1071 l 228 1071 z "},"Ë":{"ha":790,"x_min":121,"x_max":749,"o":"m 121 0 l 121 1021 l 737 1021 l 737 922 l 225 922 l 225 566 l 677 566 l 677 469 l 225 469 l 225 98 l 749 98 l 749 0 l 121 0 m 281 1101 q 273 1110 281 1101 q 264 1146 264 1119 q 281 1192 264 1173 q 326 1210 299 1210 q 373 1192 354 1210 q 392 1146 392 1173 q 373 1101 392 1119 q 326 1083 354 1083 q 281 1101 299 1083 m 504 1101 q 495 1110 504 1101 q 486 1146 486 1119 q 504 1192 486 1173 q 549 1210 522 1210 q 595 1192 576 1210 q 614 1146 614 1173 q 595 1101 614 1119 q 549 1083 576 1083 q 504 1101 522 1083 z "},"Ì":{"ha":345,"x_min":-82,"x_max":239,"o":"m -82 1229 l 49 1229 l 239 1072 l 122 1072 l -82 1229 m 121 0 l 121 1021 l 225 1021 l 225 0 l 121 0 z "},"Í":{"ha":345,"x_min":96,"x_max":416,"o":"m 96 1072 l 286 1229 l 416 1229 l 212 1072 l 96 1072 m 121 0 l 121 1021 l 225 1021 l 225 0 l 121 0 z "},"Î":{"ha":345,"x_min":-36,"x_max":383,"o":"m -36 1071 l 174 1265 l 383 1071 l 283 1071 l 174 1173 l 62 1071 l -36 1071 m 121 0 l 121 1021 l 225 1021 l 225 0 l 121 0 z "},"Ï":{"ha":345,"x_min":0,"x_max":350,"o":"m 18 1101 q 9 1110 18 1101 q 0 1146 0 1119 q 18 1192 0 1173 q 62 1210 35 1210 q 109 1192 90 1210 q 127 1146 127 1173 q 109 1101 127 1119 q 62 1083 90 1083 q 18 1101 35 1083 m 121 0 l 121 1021 l 225 1021 l 225 0 l 121 0 m 240 1101 q 231 1110 240 1101 q 222 1146 222 1119 q 240 1192 222 1173 q 285 1210 258 1210 q 331 1192 313 1210 q 350 1146 350 1173 q 331 1101 350 1119 q 285 1083 313 1083 q 240 1101 258 1083 z "},"Ð":{"ha":1038,"x_min":22,"x_max":989,"o":"m 22 486 l 22 561 l 146 561 l 146 1021 l 446 1021 q 845 886 701 1021 q 989 511 989 752 q 846 135 989 270 q 446 0 703 0 l 146 0 l 146 486 l 22 486 m 250 98 l 443 98 q 769 207 654 98 q 884 511 884 315 q 768 814 884 706 q 443 922 652 922 l 250 922 l 250 561 l 418 561 l 418 486 l 250 486 l 250 98 z "},"Ñ":{"ha":1006,"x_min":121,"x_max":888,"o":"m 121 0 l 121 1039 l 126 1039 l 782 250 l 782 1021 l 888 1021 l 888 -18 l 882 -18 l 225 772 l 225 0 l 121 0 m 286 1079 q 322 1215 286 1169 q 415 1260 357 1260 q 469 1248 445 1260 q 507 1219 492 1236 q 535 1184 522 1202 q 564 1155 549 1167 q 597 1143 579 1143 q 652 1250 652 1143 l 721 1250 q 685 1115 721 1161 q 591 1069 650 1069 q 545 1078 566 1069 q 512 1100 524 1086 q 487 1128 499 1113 q 465 1156 474 1143 q 442 1178 456 1169 q 412 1186 429 1186 q 355 1079 355 1186 l 286 1079 z "},"Ò":{"ha":1114,"x_min":49,"x_max":1067,"o":"m 49 510 q 114 781 49 661 q 295 970 178 902 q 557 1039 411 1039 q 818 971 701 1039 q 1001 781 935 903 q 1067 510 1067 660 q 1001 238 1067 359 q 818 50 935 117 q 557 -18 701 -18 q 353 21 448 -18 q 192 131 258 61 q 87 299 125 201 q 49 510 49 397 m 205 731 q 180 682 205 731 q 154 510 154 633 q 205 289 154 387 q 349 136 257 191 q 557 81 441 81 q 765 136 673 81 q 908 289 857 191 q 960 510 960 387 q 908 731 960 633 q 765 885 857 829 q 557 940 673 940 q 349 885 441 940 q 205 731 257 829 m 300 1243 l 431 1243 l 621 1086 l 504 1086 l 300 1243 z "},"Ó":{"ha":1114,"x_min":49,"x_max":1067,"o":"m 49 510 q 114 781 49 661 q 295 970 178 902 q 557 1039 411 1039 q 818 971 701 1039 q 1001 781 935 903 q 1067 510 1067 660 q 1001 238 1067 359 q 818 50 935 117 q 557 -18 701 -18 q 353 21 448 -18 q 192 131 258 61 q 87 299 125 201 q 49 510 49 397 m 205 731 q 180 682 205 731 q 154 510 154 633 q 205 289 154 387 q 349 136 257 191 q 557 81 441 81 q 765 136 673 81 q 908 289 857 191 q 960 510 960 387 q 908 731 960 633 q 765 885 857 829 q 557 940 673 940 q 349 885 441 940 q 205 731 257 829 m 482 1086 l 672 1243 l 803 1243 l 599 1086 l 482 1086 z "},"Ô":{"ha":1114,"x_min":49,"x_max":1067,"o":"m 49 510 q 114 781 49 661 q 295 970 178 902 q 557 1039 411 1039 q 818 971 701 1039 q 1001 781 935 903 q 1067 510 1067 660 q 1001 238 1067 359 q 818 50 935 117 q 557 -18 701 -18 q 353 21 448 -18 q 192 131 258 61 q 87 299 125 201 q 49 510 49 397 m 205 731 q 180 682 205 731 q 154 510 154 633 q 205 289 154 387 q 349 136 257 191 q 557 81 441 81 q 765 136 673 81 q 908 289 857 191 q 960 510 960 387 q 908 731 960 633 q 765 885 857 829 q 557 940 673 940 q 349 885 441 940 q 205 731 257 829 m 346 1084 l 555 1279 l 765 1084 l 665 1084 l 555 1186 l 444 1084 l 346 1084 z "},"Õ":{"ha":1114,"x_min":49,"x_max":1067,"o":"m 49 510 q 114 781 49 661 q 295 970 178 902 q 557 1039 411 1039 q 818 971 701 1039 q 1001 781 935 903 q 1067 510 1067 660 q 1001 238 1067 359 q 818 50 935 117 q 557 -18 701 -18 q 353 21 448 -18 q 192 131 258 61 q 87 299 125 201 q 49 510 49 397 m 205 731 q 180 682 205 731 q 154 510 154 633 q 205 289 154 387 q 349 136 257 191 q 557 81 441 81 q 765 136 673 81 q 908 289 857 191 q 960 510 960 387 q 908 731 960 633 q 765 885 857 829 q 557 940 673 940 q 349 885 441 940 q 205 731 257 829 m 339 1093 q 375 1229 339 1183 q 468 1274 410 1274 q 522 1262 498 1274 q 560 1233 545 1250 q 588 1198 575 1215 q 616 1169 601 1181 q 650 1157 631 1157 q 704 1264 704 1157 l 774 1264 q 738 1129 774 1175 q 644 1083 703 1083 q 598 1092 618 1083 q 565 1113 577 1100 q 539 1141 552 1126 q 518 1170 527 1156 q 495 1191 509 1183 q 465 1200 481 1200 q 408 1093 408 1200 l 339 1093 z "},"Ö":{"ha":1114,"x_min":49,"x_max":1067,"o":"m 49 510 q 114 781 49 661 q 295 970 178 902 q 557 1039 411 1039 q 818 971 701 1039 q 1001 781 935 903 q 1067 510 1067 660 q 1001 238 1067 359 q 818 50 935 117 q 557 -18 701 -18 q 353 21 448 -18 q 192 131 258 61 q 87 299 125 201 q 49 510 49 397 m 205 731 q 180 682 205 731 q 154 510 154 633 q 205 289 154 387 q 349 136 257 191 q 557 81 441 81 q 765 136 673 81 q 908 289 857 191 q 960 510 960 387 q 908 731 960 633 q 765 885 857 829 q 557 940 673 940 q 349 885 441 940 q 205 731 257 829 m 399 1115 q 391 1124 399 1115 q 382 1160 382 1133 q 399 1205 382 1187 q 444 1223 417 1223 q 491 1205 472 1223 q 510 1160 510 1187 q 491 1115 510 1133 q 444 1097 472 1097 q 399 1115 417 1097 m 622 1115 q 613 1124 622 1115 q 604 1160 604 1133 q 622 1205 604 1187 q 667 1223 640 1223 q 713 1205 694 1223 q 732 1160 732 1187 q 713 1115 732 1133 q 667 1097 694 1097 q 622 1115 640 1097 z "},"×":{"ha":605,"x_min":66,"x_max":539,"o":"m 66 315 l 237 486 l 66 656 l 134 722 l 304 553 l 472 722 l 539 657 l 368 486 l 539 317 l 472 250 l 304 419 l 134 250 l 66 315 z "},"Ø":{"ha":1114,"x_min":49,"x_max":1067,"o":"m 49 510 q 114 781 49 661 q 295 970 178 902 q 557 1039 411 1039 q 772 993 671 1039 l 848 1132 l 943 1132 l 844 953 q 1007 767 948 882 q 1067 510 1067 651 q 1001 238 1067 359 q 818 50 935 117 q 557 -18 701 -18 q 340 26 443 -18 l 265 -111 l 170 -111 l 267 66 q 106 252 164 136 q 49 510 49 368 m 154 510 q 197 307 154 399 q 315 158 239 215 l 724 904 q 557 940 643 940 q 349 885 441 940 q 205 731 257 829 q 154 510 154 633 m 389 115 q 557 81 466 81 q 765 136 673 81 q 908 289 857 191 q 960 510 960 387 q 917 713 960 621 q 796 863 873 806 l 389 115 z "},"Ù":{"ha":954,"x_min":109,"x_max":846,"o":"m 109 355 l 109 1021 l 212 1021 l 212 361 q 280 155 212 230 q 478 81 349 81 q 673 155 605 81 q 741 361 741 230 l 741 1021 l 846 1021 l 846 355 q 751 81 846 181 q 478 -18 656 -18 q 203 81 298 -18 q 109 355 109 181 m 221 1229 l 351 1229 l 542 1072 l 425 1072 l 221 1229 z "},"Ú":{"ha":954,"x_min":109,"x_max":846,"o":"m 109 355 l 109 1021 l 212 1021 l 212 361 q 280 155 212 230 q 478 81 349 81 q 673 155 605 81 q 741 361 741 230 l 741 1021 l 846 1021 l 846 355 q 751 81 846 181 q 478 -18 656 -18 q 203 81 298 -18 q 109 355 109 181 m 401 1072 l 591 1229 l 722 1229 l 518 1072 l 401 1072 z "},"Û":{"ha":954,"x_min":109,"x_max":846,"o":"m 109 355 l 109 1021 l 212 1021 l 212 361 q 280 155 212 230 q 478 81 349 81 q 673 155 605 81 q 741 361 741 230 l 741 1021 l 846 1021 l 846 355 q 751 81 846 181 q 478 -18 656 -18 q 203 81 298 -18 q 109 355 109 181 m 267 1071 l 476 1265 l 686 1071 l 586 1071 l 476 1173 l 366 1071 l 267 1071 z "},"Ü":{"ha":954,"x_min":109,"x_max":846,"o":"m 109 355 l 109 1021 l 212 1021 l 212 361 q 280 155 212 230 q 478 81 349 81 q 673 155 605 81 q 741 361 741 230 l 741 1021 l 846 1021 l 846 355 q 751 81 846 181 q 478 -18 656 -18 q 203 81 298 -18 q 109 355 109 181 m 319 1101 q 310 1110 319 1101 q 301 1146 301 1119 q 319 1192 301 1173 q 364 1210 337 1210 q 411 1192 392 1210 q 429 1146 429 1173 q 411 1101 429 1119 q 364 1083 392 1083 q 319 1101 337 1083 m 541 1101 q 532 1110 541 1101 q 524 1146 524 1119 q 541 1192 524 1173 q 586 1210 559 1210 q 633 1192 614 1210 q 652 1146 652 1173 q 633 1101 652 1119 q 586 1083 614 1083 q 541 1101 559 1083 z "},"Ý":{"ha":890,"x_min":11,"x_max":878,"o":"m 11 1019 l 135 1019 l 444 545 l 754 1019 l 878 1019 l 497 439 l 497 0 l 392 0 l 392 437 l 11 1019 m 368 1072 l 558 1229 l 689 1229 l 485 1072 l 368 1072 z "},"Þ":{"ha":758,"x_min":121,"x_max":718,"o":"m 121 0 l 121 1021 l 225 1021 l 225 831 l 407 831 q 560 799 490 831 q 674 703 630 767 q 718 553 718 638 q 674 403 718 467 q 560 307 630 338 q 407 275 490 275 l 225 275 l 225 0 l 121 0 m 225 370 l 399 370 q 550 418 488 370 q 611 553 611 467 q 550 687 611 638 q 399 736 488 736 l 225 736 l 225 370 z "},"ß":{"ha":891,"x_min":129,"x_max":781,"o":"m 129 0 l 129 737 q 213 959 129 879 q 428 1039 297 1039 q 633 961 554 1039 q 713 765 713 884 q 674 635 713 687 q 572 557 636 583 q 630 536 602 549 q 686 500 658 523 q 734 448 713 477 q 768 376 755 418 q 781 285 781 334 q 696 65 781 149 q 468 -18 612 -18 q 317 18 382 -18 l 343 110 q 399 85 374 93 q 465 77 425 77 q 615 132 557 77 q 673 286 673 188 q 634 413 673 361 q 522 485 595 464 q 395 504 461 504 l 395 582 q 449 587 427 582 q 503 606 471 593 q 607 758 607 652 q 554 895 607 843 q 425 946 500 946 q 283 895 334 946 q 232 742 232 844 l 232 0 l 129 0 z "},"à":{"ha":812,"x_min":46,"x_max":700,"o":"m 46 347 q 86 533 46 450 q 201 662 127 615 q 368 708 275 708 q 510 678 451 708 q 604 603 568 648 l 607 694 l 700 694 l 700 0 l 607 0 l 604 93 q 510 17 569 47 q 368 -14 451 -14 q 136 88 226 -14 q 46 347 46 189 m 147 347 q 213 152 147 228 q 383 77 279 77 q 509 109 458 77 q 600 203 560 142 l 600 492 q 508 584 559 551 q 383 616 457 616 q 214 541 280 616 q 147 347 147 465 m 149 974 l 275 974 l 469 803 l 361 803 l 149 974 z "},"á":{"ha":812,"x_min":46,"x_max":700,"o":"m 46 347 q 86 533 46 450 q 201 662 127 615 q 368 708 275 708 q 510 678 451 708 q 604 603 568 648 l 607 694 l 700 694 l 700 0 l 607 0 l 604 93 q 510 17 569 47 q 368 -14 451 -14 q 136 88 226 -14 q 46 347 46 189 m 147 347 q 213 152 147 228 q 383 77 279 77 q 509 109 458 77 q 600 203 560 142 l 600 492 q 508 584 559 551 q 383 616 457 616 q 214 541 280 616 q 147 347 147 465 m 336 803 l 530 974 l 657 974 l 444 803 l 336 803 z "},"â":{"ha":812,"x_min":46,"x_max":700,"o":"m 46 347 q 86 533 46 450 q 201 662 127 615 q 368 708 275 708 q 510 678 451 708 q 604 603 568 648 l 607 694 l 700 694 l 700 0 l 607 0 l 604 93 q 510 17 569 47 q 368 -14 451 -14 q 136 88 226 -14 q 46 347 46 189 m 147 347 q 213 152 147 228 q 383 77 279 77 q 509 109 458 77 q 600 203 560 142 l 600 492 q 508 584 559 551 q 383 616 457 616 q 214 541 280 616 q 147 347 147 465 m 199 802 l 404 1015 l 610 802 l 513 802 l 404 907 l 296 802 l 199 802 z "},"ã":{"ha":812,"x_min":46,"x_max":700,"o":"m 46 347 q 86 533 46 450 q 201 662 127 615 q 368 708 275 708 q 510 678 451 708 q 604 603 568 648 l 607 694 l 700 694 l 700 0 l 607 0 l 604 93 q 510 17 569 47 q 368 -14 451 -14 q 136 88 226 -14 q 46 347 46 189 m 147 347 q 213 152 147 228 q 383 77 279 77 q 509 109 458 77 q 600 203 560 142 l 600 492 q 508 584 559 551 q 383 616 457 616 q 214 541 280 616 q 147 347 147 465 m 187 804 q 223 940 187 895 q 317 985 259 985 q 370 973 347 985 q 409 944 394 961 q 437 909 424 926 q 465 880 450 892 q 498 868 480 868 q 553 975 553 868 l 623 975 q 587 840 623 886 q 493 794 551 794 q 447 803 467 794 q 413 824 426 811 q 388 852 401 838 q 367 881 376 867 q 344 902 357 894 q 314 911 330 911 q 257 804 257 911 l 187 804 z "},"ä":{"ha":812,"x_min":46,"x_max":700,"o":"m 46 347 q 86 533 46 450 q 201 662 127 615 q 368 708 275 708 q 510 678 451 708 q 604 603 568 648 l 607 694 l 700 694 l 700 0 l 607 0 l 604 93 q 510 17 569 47 q 368 -14 451 -14 q 136 88 226 -14 q 46 347 46 189 m 147 347 q 213 152 147 228 q 383 77 279 77 q 509 109 458 77 q 600 203 560 142 l 600 492 q 508 584 559 551 q 383 616 457 616 q 214 541 280 616 q 147 347 147 465 m 249 839 q 240 849 249 839 q 231 885 231 858 q 248 930 231 912 q 293 949 266 949 q 339 930 321 949 q 358 885 358 912 q 339 839 358 858 q 293 821 321 821 q 249 839 267 821 m 471 839 q 462 849 471 839 q 453 885 453 858 q 471 930 453 912 q 515 949 488 949 q 562 930 543 949 q 581 885 581 912 q 562 839 581 858 q 515 821 543 821 q 471 839 489 821 z "},"å":{"ha":812,"x_min":46,"x_max":700,"o":"m 46 347 q 86 533 46 450 q 201 662 127 615 q 368 708 275 708 q 510 678 451 708 q 604 603 568 648 l 607 694 l 700 694 l 700 0 l 607 0 l 604 93 q 510 17 569 47 q 368 -14 451 -14 q 136 88 226 -14 q 46 347 46 189 m 147 347 q 213 152 147 228 q 383 77 279 77 q 509 109 458 77 q 600 203 560 142 l 600 492 q 508 584 559 551 q 383 616 457 616 q 214 541 280 616 q 147 347 147 465 m 303 834 q 283 854 303 834 q 262 935 262 874 q 303 1036 262 995 q 406 1076 344 1076 q 507 1036 466 1076 q 547 935 547 995 q 507 834 547 874 q 406 794 466 794 q 303 834 344 794 m 326 935 q 349 879 326 901 q 406 857 372 857 q 462 879 439 857 q 485 935 485 901 q 462 992 485 969 q 406 1015 439 1015 q 349 992 372 1015 q 326 935 326 969 z "},"æ":{"ha":1308,"x_min":45,"x_max":1263,"o":"m 45 347 q 85 533 45 450 q 199 662 125 615 q 367 708 273 708 q 508 678 450 708 q 603 603 567 648 l 606 694 l 694 694 l 697 579 q 800 673 737 639 q 946 708 863 708 q 1117 661 1044 708 q 1226 534 1190 614 q 1263 350 1263 454 l 1263 311 l 715 311 q 782 136 721 199 q 961 74 843 74 q 1087 101 1031 74 q 1177 172 1142 128 l 1247 113 q 1124 19 1197 52 q 964 -14 1052 -14 q 800 20 868 -14 q 697 114 732 54 l 693 0 l 606 0 l 603 93 q 509 17 568 47 q 367 -14 450 -14 q 135 88 224 -14 q 45 347 45 189 m 146 347 q 212 152 146 228 q 382 77 278 77 q 508 109 456 77 q 599 203 559 142 l 599 492 q 507 584 558 551 q 382 616 456 616 q 212 541 279 616 q 146 347 146 465 m 714 395 l 1162 395 q 1100 558 1158 496 q 942 619 1042 619 q 784 560 848 619 q 714 395 721 500 z "},"ç":{"ha":694,"x_min":45,"x_max":667,"o":"m 45 347 q 137 607 45 507 q 389 708 229 708 q 661 561 563 708 l 586 503 q 389 618 514 618 q 209 543 272 618 q 146 347 146 468 q 211 152 146 227 q 392 77 275 77 q 509 109 458 77 q 591 192 560 142 l 667 134 q 392 -14 568 -14 l 385 -14 l 374 -85 q 468 -122 433 -89 q 503 -211 503 -155 q 462 -311 503 -275 q 354 -347 422 -347 q 222 -293 269 -347 l 265 -243 q 351 -283 299 -283 q 408 -266 386 -283 q 429 -214 429 -248 q 367 -147 429 -158 q 301 -151 336 -142 l 297 -146 l 321 -8 q 118 110 191 14 q 45 347 45 207 z "},"è":{"ha":730,"x_min":45,"x_max":685,"o":"m 45 346 q 136 606 45 503 q 372 708 227 708 q 543 660 471 708 q 650 532 614 612 q 685 353 685 453 l 685 311 l 146 311 q 212 137 149 200 q 389 74 275 74 q 514 102 460 74 q 599 172 568 130 l 669 113 q 389 -14 568 -14 q 137 86 229 -14 q 45 346 45 186 m 113 974 l 239 974 l 433 803 l 325 803 l 113 974 m 146 395 l 585 395 q 525 558 581 496 q 372 619 469 619 q 213 558 275 619 q 146 395 151 496 z "},"é":{"ha":730,"x_min":45,"x_max":685,"o":"m 45 346 q 136 606 45 503 q 372 708 227 708 q 543 660 471 708 q 650 532 614 612 q 685 353 685 453 l 685 311 l 146 311 q 212 137 149 200 q 389 74 275 74 q 514 102 460 74 q 599 172 568 130 l 669 113 q 389 -14 568 -14 q 137 86 229 -14 q 45 346 45 186 m 146 395 l 585 395 q 525 558 581 496 q 372 619 469 619 q 213 558 275 619 q 146 395 151 496 m 301 803 l 496 974 l 623 974 l 410 803 l 301 803 z "},"ê":{"ha":730,"x_min":45,"x_max":685,"o":"m 45 346 q 136 606 45 503 q 372 708 227 708 q 543 660 471 708 q 650 532 614 612 q 685 353 685 453 l 685 311 l 146 311 q 212 137 149 200 q 389 74 275 74 q 514 102 460 74 q 599 172 568 130 l 669 113 q 389 -14 568 -14 q 137 86 229 -14 q 45 346 45 186 m 146 395 l 585 395 q 525 558 581 496 q 372 619 469 619 q 213 558 275 619 q 146 395 151 496 m 164 802 l 370 1015 l 575 802 l 478 802 l 370 907 l 261 802 l 164 802 z "},"ë":{"ha":730,"x_min":45,"x_max":685,"o":"m 45 346 q 136 606 45 503 q 372 708 227 708 q 543 660 471 708 q 650 532 614 612 q 685 353 685 453 l 685 311 l 146 311 q 212 137 149 200 q 389 74 275 74 q 514 102 460 74 q 599 172 568 130 l 669 113 q 389 -14 568 -14 q 137 86 229 -14 q 45 346 45 186 m 146 395 l 585 395 q 525 558 581 496 q 372 619 469 619 q 213 558 275 619 q 146 395 151 496 m 214 839 q 205 849 214 839 q 196 885 196 858 q 214 930 196 912 q 258 949 231 949 q 305 930 286 949 q 323 885 323 912 q 305 839 323 858 q 258 821 286 821 q 214 839 232 821 m 436 839 q 427 849 436 839 q 418 885 418 858 q 436 930 418 912 q 481 949 454 949 q 527 930 509 949 q 546 885 546 912 q 527 839 546 858 q 481 821 509 821 q 436 839 454 821 z "},"ì":{"ha":330,"x_min":-92,"x_max":229,"o":"m -92 974 l 35 974 l 229 803 l 121 803 l -92 974 m 114 0 l 114 694 l 215 694 l 215 0 l 114 0 z "},"í":{"ha":330,"x_min":96,"x_max":416,"o":"m 96 803 l 290 974 l 416 974 l 204 803 l 96 803 m 114 0 l 114 694 l 215 694 l 215 0 l 114 0 z "},"î":{"ha":330,"x_min":-40,"x_max":371,"o":"m -40 802 l 165 1015 l 371 802 l 273 802 l 165 907 l 57 802 l -40 802 m 114 0 l 114 694 l 215 694 l 215 0 l 114 0 z "},"ï":{"ha":330,"x_min":-8,"x_max":342,"o":"m 10 839 q 1 849 10 839 q -8 885 -8 858 q 9 930 -8 912 q 54 949 27 949 q 101 930 82 949 q 119 885 119 912 q 101 839 119 858 q 54 821 82 821 q 10 839 28 821 m 114 0 l 114 694 l 215 694 l 215 0 l 114 0 m 232 839 q 223 849 232 839 q 214 885 214 858 q 232 930 214 912 q 277 949 250 949 q 323 930 304 949 q 342 885 342 912 q 323 839 342 858 q 277 821 304 821 q 232 839 250 821 z "},"ð":{"ha":774,"x_min":49,"x_max":729,"o":"m 49 329 q 145 574 49 477 q 389 672 241 672 q 447 668 418 672 l 346 810 l 110 810 l 110 889 l 290 889 l 172 1055 l 296 1055 l 414 889 l 652 889 l 652 810 l 469 810 l 647 558 q 729 329 729 463 q 633 83 729 180 q 389 -14 536 -14 q 145 83 241 -14 q 49 329 49 180 m 149 329 q 216 145 149 218 q 389 72 284 72 q 561 145 493 72 q 629 329 629 218 q 561 513 629 439 q 389 586 492 586 q 217 513 285 586 q 149 329 149 439 z "},"ñ":{"ha":800,"x_min":114,"x_max":705,"o":"m 114 0 l 114 694 l 207 694 l 210 602 q 306 677 247 647 q 441 708 364 708 q 635 628 565 708 q 705 415 705 548 l 705 0 l 604 0 l 604 410 q 554 555 604 500 q 421 611 504 611 q 308 580 356 611 q 215 490 259 549 l 215 0 l 114 0 m 192 804 q 228 940 192 895 q 321 985 263 985 q 374 973 351 985 q 413 944 398 961 q 441 909 428 926 q 469 880 454 892 q 503 868 484 868 q 557 975 557 868 l 627 975 q 591 840 627 886 q 497 794 555 794 q 451 803 471 794 q 417 824 430 811 q 392 852 405 838 q 371 881 380 867 q 348 902 361 894 q 318 911 334 911 q 261 804 261 911 l 192 804 z "},"ò":{"ha":789,"x_min":45,"x_max":746,"o":"m 143 88 q 94 139 143 88 q 45 346 45 189 q 143 605 45 503 q 395 708 242 708 q 646 605 547 708 q 746 346 746 502 q 646 88 746 190 q 395 -14 547 -14 q 143 88 242 -14 m 136 974 l 262 974 l 457 803 l 349 803 l 136 974 m 216 539 q 181 501 216 539 q 146 346 146 463 q 216 153 146 229 q 395 77 286 77 q 573 153 503 77 q 643 346 643 229 q 573 539 643 463 q 395 616 503 616 q 216 539 287 616 z "},"ó":{"ha":789,"x_min":45,"x_max":746,"o":"m 143 88 q 94 139 143 88 q 45 346 45 189 q 143 605 45 503 q 395 708 242 708 q 646 605 547 708 q 746 346 746 502 q 646 88 746 190 q 395 -14 547 -14 q 143 88 242 -14 m 216 539 q 181 501 216 539 q 146 346 146 463 q 216 153 146 229 q 395 77 286 77 q 573 153 503 77 q 643 346 643 229 q 573 539 643 463 q 395 616 503 616 q 216 539 287 616 m 325 803 l 519 974 l 646 974 l 433 803 l 325 803 z "},"ô":{"ha":789,"x_min":45,"x_max":746,"o":"m 143 88 q 94 139 143 88 q 45 346 45 189 q 143 605 45 503 q 395 708 242 708 q 646 605 547 708 q 746 346 746 502 q 646 88 746 190 q 395 -14 547 -14 q 143 88 242 -14 m 216 539 q 181 501 216 539 q 146 346 146 463 q 216 153 146 229 q 395 77 286 77 q 573 153 503 77 q 643 346 643 229 q 573 539 643 463 q 395 616 503 616 q 216 539 287 616 m 187 802 l 393 1015 l 599 802 l 501 802 l 393 907 l 285 802 l 187 802 z "},"õ":{"ha":789,"x_min":45,"x_max":746,"o":"m 143 88 q 94 139 143 88 q 45 346 45 189 q 143 605 45 503 q 395 708 242 708 q 646 605 547 708 q 746 346 746 502 q 646 88 746 190 q 395 -14 547 -14 q 143 88 242 -14 m 216 539 q 181 501 216 539 q 146 346 146 463 q 216 153 146 229 q 395 77 286 77 q 573 153 503 77 q 643 346 643 229 q 573 539 643 463 q 395 616 503 616 q 216 539 287 616 m 176 804 q 212 940 176 895 q 306 985 248 985 q 359 973 336 985 q 398 944 383 961 q 426 909 413 926 q 454 880 439 892 q 488 868 469 868 q 542 975 542 868 l 611 975 q 576 840 611 886 q 482 794 541 794 q 428 806 452 794 q 391 835 405 818 q 365 870 377 852 q 337 899 352 887 q 302 911 321 911 q 245 804 245 911 l 176 804 z "},"ö":{"ha":789,"x_min":45,"x_max":746,"o":"m 143 88 q 94 139 143 88 q 45 346 45 189 q 143 605 45 503 q 395 708 242 708 q 646 605 547 708 q 746 346 746 502 q 646 88 746 190 q 395 -14 547 -14 q 143 88 242 -14 m 216 539 q 181 501 216 539 q 146 346 146 463 q 216 153 146 229 q 395 77 286 77 q 573 153 503 77 q 643 346 643 229 q 573 539 643 463 q 395 616 503 616 q 216 539 287 616 m 238 839 q 229 849 238 839 q 220 885 220 858 q 237 930 220 912 q 282 949 255 949 q 329 930 310 949 q 347 885 347 912 q 329 839 347 858 q 282 821 310 821 q 238 839 256 821 m 459 839 q 450 849 459 839 q 441 885 441 858 q 459 930 441 912 q 504 949 477 949 q 551 930 532 949 q 570 885 570 912 q 551 839 570 858 q 504 821 532 821 q 459 839 477 821 z "},"÷":{"ha":655,"x_min":57,"x_max":597,"o":"m 57 440 l 57 533 l 597 533 l 597 440 l 57 440 m 257 231 q 277 282 257 262 q 326 302 296 302 q 378 282 357 302 q 399 231 399 262 q 378 180 399 201 q 326 160 357 160 q 277 180 296 160 q 257 231 257 201 m 257 737 q 277 789 257 768 q 326 810 296 810 q 378 789 357 810 q 399 737 399 769 q 378 687 399 708 q 326 667 357 667 q 277 687 296 667 q 257 737 257 708 z "},"ø":{"ha":789,"x_min":45,"x_max":746,"o":"m 45 346 q 143 605 45 503 q 395 708 242 708 q 539 679 468 708 l 600 791 l 672 791 l 595 647 q 706 519 665 598 q 746 346 746 441 q 646 88 746 190 q 395 -14 547 -14 q 253 12 316 -14 l 193 -97 l 118 -97 l 195 45 q 84 171 124 92 q 45 346 45 249 m 142 346 q 167 219 142 276 q 239 125 193 162 l 496 600 q 395 621 445 621 q 213 543 285 621 q 142 346 142 465 m 294 92 q 395 72 343 72 q 575 150 504 72 q 647 346 647 227 q 621 471 647 414 q 550 566 595 528 l 294 92 z "},"ù":{"ha":786,"x_min":96,"x_max":672,"o":"m 96 275 l 96 694 l 197 694 l 197 279 q 243 137 197 191 q 366 82 289 82 q 480 113 433 82 q 572 203 527 143 l 572 694 l 672 694 l 672 0 l 579 0 l 576 92 q 343 -14 488 -14 q 161 65 227 -14 q 96 275 96 144 m 126 974 l 253 974 l 447 803 l 339 803 l 126 974 z "},"ú":{"ha":786,"x_min":96,"x_max":672,"o":"m 96 275 l 96 694 l 197 694 l 197 279 q 243 137 197 191 q 366 82 289 82 q 480 113 433 82 q 572 203 527 143 l 572 694 l 672 694 l 672 0 l 579 0 l 576 92 q 343 -14 488 -14 q 161 65 227 -14 q 96 275 96 144 m 314 803 l 509 974 l 635 974 l 422 803 l 314 803 z "},"û":{"ha":786,"x_min":96,"x_max":672,"o":"m 96 275 l 96 694 l 197 694 l 197 279 q 243 137 197 191 q 366 82 289 82 q 480 113 433 82 q 572 203 527 143 l 572 694 l 672 694 l 672 0 l 579 0 l 576 92 q 343 -14 488 -14 q 161 65 227 -14 q 96 275 96 144 m 178 802 l 383 1015 l 589 802 l 492 802 l 383 907 l 275 802 l 178 802 z "},"ü":{"ha":786,"x_min":96,"x_max":672,"o":"m 96 275 l 96 694 l 197 694 l 197 279 q 243 137 197 191 q 366 82 289 82 q 480 113 433 82 q 572 203 527 143 l 572 694 l 672 694 l 672 0 l 579 0 l 576 92 q 343 -14 488 -14 q 161 65 227 -14 q 96 275 96 144 m 226 839 q 217 849 226 839 q 208 885 208 858 q 226 930 208 912 q 271 949 243 949 q 317 930 298 949 q 336 885 336 912 q 317 839 336 858 q 271 821 298 821 q 226 839 244 821 m 449 839 q 440 849 449 839 q 431 885 431 858 q 448 930 431 912 q 493 949 466 949 q 539 930 521 949 q 558 885 558 912 q 539 839 558 858 q 493 821 521 821 q 449 839 467 821 z "},"ý":{"ha":747,"x_min":26,"x_max":721,"o":"m 26 694 l 138 694 l 374 195 l 610 694 l 721 694 l 231 -319 l 117 -319 l 319 81 l 26 694 m 297 803 l 492 974 l 618 974 l 406 803 l 297 803 z "},"þ":{"ha":812,"x_min":114,"x_max":770,"o":"m 114 -319 l 114 1055 l 215 1055 l 215 607 q 447 708 296 708 q 679 606 588 708 q 770 347 770 504 q 679 88 770 190 q 447 -14 589 -14 q 215 85 296 -14 l 215 -319 l 114 -319 m 215 203 q 305 110 254 142 q 431 77 356 77 q 601 152 534 77 q 667 347 667 228 q 601 542 667 467 q 431 616 534 616 q 306 584 357 616 q 215 492 254 551 l 215 203 z "},"ÿ":{"ha":747,"x_min":26,"x_max":721,"o":"m 26 694 l 138 694 l 374 195 l 610 694 l 721 694 l 231 -319 l 117 -319 l 319 81 l 26 694 m 210 839 q 201 849 210 839 q 192 885 192 858 q 210 930 192 912 q 254 949 227 949 q 301 930 282 949 q 319 885 319 912 q 301 839 319 858 q 254 821 282 821 q 210 839 228 821 m 432 839 q 423 849 432 839 q 414 885 414 858 q 431 930 414 912 q 476 949 449 949 q 523 930 504 949 q 542 885 542 912 q 523 839 542 858 q 476 821 504 821 q 432 839 450 821 z "},"Œ":{"ha":1621,"x_min":49,"x_max":1589,"o":"m 49 510 q 114 781 49 661 q 295 970 178 902 q 557 1039 411 1039 q 790 982 685 1039 q 961 823 895 924 l 961 1021 l 1578 1021 l 1578 922 l 1065 922 l 1065 566 l 1518 566 l 1518 469 l 1065 469 l 1065 98 l 1589 98 l 1589 0 l 961 0 l 961 196 q 790 38 895 95 q 557 -18 685 -18 q 353 21 448 -18 q 192 131 258 61 q 87 299 125 201 q 49 510 49 397 m 205 731 q 180 682 205 731 q 154 510 154 633 q 205 289 154 387 q 349 136 257 191 q 557 81 441 81 q 765 136 673 81 q 908 289 857 191 q 960 510 960 387 q 908 731 960 633 q 765 885 857 829 q 557 940 673 940 q 349 885 441 940 q 205 731 257 829 z "},"œ":{"ha":1335,"x_min":45,"x_max":1287,"o":"m 143 88 q 94 139 143 88 q 45 346 45 189 q 143 605 45 503 q 395 708 242 708 q 570 664 492 708 q 693 542 648 619 q 809 664 736 620 q 975 708 882 708 q 1145 660 1074 708 q 1252 532 1217 612 q 1287 353 1287 453 l 1287 311 l 749 311 q 815 137 752 200 q 991 74 878 74 q 1117 102 1063 74 q 1202 172 1171 130 l 1272 113 q 991 -14 1171 -14 q 812 29 888 -14 q 693 150 736 72 q 570 30 648 73 q 395 -14 492 -14 q 143 88 242 -14 m 216 539 q 181 501 216 539 q 146 346 146 463 q 216 153 146 229 q 395 77 286 77 q 573 153 503 77 q 643 346 643 229 q 573 539 643 463 q 395 616 503 616 q 216 539 287 616 m 749 395 l 1187 395 q 1128 558 1184 496 q 975 619 1072 619 q 816 558 878 619 q 749 395 754 496 z "},"Ÿ":{"ha":890,"x_min":11,"x_max":878,"o":"m 11 1019 l 135 1019 l 444 545 l 754 1019 l 878 1019 l 497 439 l 497 0 l 392 0 l 392 437 l 11 1019 m 287 1101 q 278 1110 287 1101 q 269 1146 269 1119 q 287 1192 269 1173 q 332 1210 304 1210 q 378 1192 359 1210 q 397 1146 397 1173 q 378 1101 397 1119 q 332 1083 359 1083 q 287 1101 304 1083 m 509 1101 q 500 1110 509 1101 q 492 1146 492 1119 q 509 1192 492 1173 q 554 1210 527 1210 q 601 1192 582 1210 q 619 1146 619 1173 q 601 1101 619 1119 q 554 1083 582 1083 q 509 1101 527 1083 z "},"ˆ":{"ha":472,"x_min":31,"x_max":441,"o":"m 31 802 l 236 1015 l 441 802 l 345 802 l 236 907 l 127 802 l 31 802 z "},"˜":{"ha":497,"x_min":31,"x_max":465,"o":"m 31 804 q 66 940 31 895 q 160 985 102 985 q 214 973 190 985 q 252 944 237 961 q 280 909 267 926 q 308 880 293 892 q 342 868 323 868 q 396 975 396 868 l 465 975 q 430 840 465 886 q 336 794 395 794 q 282 806 306 794 q 245 835 259 818 q 219 870 231 852 q 191 899 206 887 q 157 911 176 911 q 100 804 100 911 l 31 804 z "}," ":{"ha":676,"x_min":0,"x_max":0,"o":""}," ":{"ha":1353,"x_min":0,"x_max":0,"o":""}," ":{"ha":676,"x_min":0,"x_max":0,"o":""}," ":{"ha":1353,"x_min":0,"x_max":0,"o":""}," ":{"ha":451,"x_min":0,"x_max":0,"o":""}," ":{"ha":338,"x_min":0,"x_max":0,"o":""}," ":{"ha":225,"x_min":0,"x_max":0,"o":""}," ":{"ha":225,"x_min":0,"x_max":0,"o":""}," ":{"ha":169,"x_min":0,"x_max":0,"o":""}," ":{"ha":271,"x_min":0,"x_max":0,"o":""}," ":{"ha":75,"x_min":0,"x_max":0,"o":""},"‐":{"ha":611,"x_min":58,"x_max":553,"o":"m 58 313 l 58 406 l 553 406 l 553 313 l 58 313 z "},"‑":{"ha":611,"x_min":58,"x_max":553,"o":"m 58 313 l 58 406 l 553 406 l 553 313 l 58 313 z "},"‒":{"ha":611,"x_min":58,"x_max":553,"o":"m 58 313 l 58 406 l 553 406 l 553 313 l 58 313 z "},"–":{"ha":776,"x_min":58,"x_max":718,"o":"m 58 313 l 58 406 l 718 406 l 718 313 l 58 313 z "},"—":{"ha":1115,"x_min":58,"x_max":1057,"o":"m 58 313 l 58 406 l 1057 406 l 1057 313 l 58 313 z "},"‘":{"ha":237,"x_min":58,"x_max":165,"o":"m 58 810 q 71 854 58 833 l 160 1063 l 165 1063 l 165 733 q 139 729 153 729 q 81 752 104 729 q 58 810 58 774 z "},"’":{"ha":237,"x_min":72,"x_max":179,"o":"m 72 705 l 72 1036 q 98 1039 80 1039 q 156 1017 133 1039 q 179 960 179 994 q 167 914 179 939 l 78 705 l 72 705 z "},"‚":{"ha":237,"x_min":72,"x_max":179,"o":"m 72 135 q 98 139 84 139 q 156 116 133 139 q 179 58 179 94 q 167 14 179 38 l 78 -195 l 72 -195 l 72 135 z "},"“":{"ha":469,"x_min":58,"x_max":396,"o":"m 58 810 q 71 854 58 833 l 160 1063 l 165 1063 l 165 733 q 139 729 153 729 q 81 752 104 729 q 58 810 58 774 m 289 810 q 301 854 289 833 l 390 1063 l 396 1063 l 396 733 q 370 729 384 729 q 312 752 335 729 q 289 810 289 774 z "},"”":{"ha":469,"x_min":72,"x_max":410,"o":"m 72 705 l 72 1036 q 98 1039 80 1039 q 156 1017 133 1039 q 179 960 179 994 q 167 914 179 939 l 78 705 l 72 705 m 302 705 l 302 1036 q 329 1039 311 1039 q 387 1017 363 1039 q 410 960 410 994 q 397 914 410 939 l 309 705 l 302 705 z "},"„":{"ha":480,"x_min":72,"x_max":421,"o":"m 72 135 q 98 139 84 139 q 156 116 133 139 q 179 58 179 94 q 167 14 179 38 l 78 -195 l 72 -195 l 72 135 m 314 135 q 340 139 326 139 q 398 116 375 139 q 421 58 421 94 q 408 14 421 39 l 319 -195 l 314 -195 l 314 135 z "},"•":{"ha":410,"x_min":54,"x_max":355,"o":"m 54 358 q 97 467 54 424 q 204 510 140 510 q 313 467 270 510 q 355 358 355 424 q 313 251 355 294 q 204 208 270 208 q 97 251 140 208 q 54 358 54 294 z "},"…":{"ha":862,"x_min":54,"x_max":808,"o":"m 54 66 q 77 124 54 101 q 134 147 99 147 q 191 125 169 147 q 214 66 214 102 q 192 9 214 31 q 134 -14 170 -14 q 77 9 99 -14 q 54 66 54 31 m 351 66 q 374 124 351 101 q 431 147 396 147 q 489 124 467 147 q 511 66 511 102 q 489 9 511 31 q 431 -14 467 -14 q 374 9 396 -14 q 351 66 351 31 m 647 66 q 670 124 647 101 q 728 147 693 147 q 786 124 764 147 q 808 66 808 102 q 786 9 808 31 q 728 -14 764 -14 q 670 9 693 -14 q 647 66 647 31 z "}," ":{"ha":271,"x_min":0,"x_max":0,"o":""},"‹":{"ha":450,"x_min":21,"x_max":429,"o":"m 21 353 l 21 358 l 304 636 l 429 636 l 143 355 l 429 75 l 304 75 l 21 353 z "},"›":{"ha":450,"x_min":21,"x_max":429,"o":"m 21 75 l 307 355 l 21 636 l 146 636 l 429 358 l 429 353 l 146 75 l 21 75 z "}," ":{"ha":338,"x_min":0,"x_max":0,"o":""},"€":{"ha":909,"x_min":52,"x_max":861,"o":"m 52 355 l 52 429 l 139 429 q 136 510 136 479 q 140 593 136 551 l 52 593 l 52 667 l 150 667 q 290 940 184 842 q 551 1039 396 1039 q 726 1006 655 1039 q 852 916 798 972 l 790 842 q 690 917 745 889 q 551 945 635 945 q 365 871 441 945 q 258 667 288 798 l 587 667 l 587 593 l 248 593 q 243 510 243 547 q 248 429 243 473 l 587 429 l 587 355 l 258 355 q 366 149 288 223 q 555 75 444 75 q 693 103 637 75 q 798 180 749 131 l 861 106 q 729 14 802 47 q 555 -20 656 -20 q 292 80 399 -20 q 150 355 184 179 l 52 355 z "},"™":{"ha":1143,"x_min":29,"x_max":1089,"o":"m 29 945 l 29 1021 l 479 1021 l 479 945 l 293 945 l 293 498 l 214 498 l 214 945 l 29 945 m 558 498 l 558 1031 l 561 1031 l 823 629 l 1086 1031 l 1089 1031 l 1089 498 l 1011 498 l 1011 791 l 827 496 l 821 496 l 636 791 l 636 498 l 558 498 z "},"◼":{"ha":694,"x_min":0,"x_max":694,"o":"m 0 0 l 0 694 l 694 694 l 694 0 l 0 0 z "},"ﬁ":{"ha":805,"x_min":26,"x_max":713,"o":"m 26 606 l 26 694 l 153 694 l 153 818 q 213 988 153 922 q 372 1055 273 1055 q 492 1023 446 1055 l 458 940 q 376 965 427 965 q 287 925 320 965 q 254 821 254 884 l 254 694 l 449 694 l 449 606 l 254 606 l 254 0 l 153 0 l 153 606 l 26 606 m 587 868 q 577 878 587 868 q 567 920 567 888 q 587 972 567 951 q 639 993 608 993 q 691 972 670 993 q 713 920 713 951 q 691 868 713 888 q 639 847 670 847 q 587 868 608 847 m 587 0 l 587 694 l 689 694 l 689 0 l 587 0 z "}}}
